<svg id="svg" version="1.1" xmlns="http://www.w3.org/2000/svg" xmlns:xlink="http://www.w3.org/1999/xlink" width="400" height="344.0740740740741" viewBox="0, 0, 400,344.0740740740741"><g id="svgg"><path id="path0" d="M168.326 24.405 C 168.323 24.898,167.533 28.399,166.569 32.186 C 165.606 35.972,164.689 39.613,164.531 40.275 C 164.374 40.938,164.078 42.100,163.873 42.857 C 163.669 43.614,163.364 44.854,163.196 45.611 C 162.886 47.009,160.217 57.776,159.869 59.036 C 159.291 61.125,158.995 62.275,158.716 63.511 C 158.545 64.269,157.836 67.057,157.140 69.707 C 156.444 72.358,155.739 75.146,155.573 75.904 C 155.407 76.661,154.815 79.062,154.259 81.239 C 153.702 83.417,152.453 88.373,151.483 92.255 C 150.513 96.136,149.569 99.892,149.386 100.602 C 149.203 101.312,148.908 102.474,148.731 103.184 C 148.554 103.894,148.027 105.947,147.560 107.745 C 147.094 109.544,145.436 116.133,143.877 122.388 L 141.041 133.761 150.687 152.853 C 155.992 163.354,166.181 183.563,173.330 197.762 C 180.479 211.962,189.482 229.840,193.336 237.492 C 197.191 245.144,200.344 251.606,200.344 251.853 C 200.344 252.236,197.833 259.013,196.917 261.102 C 196.751 261.480,196.040 263.262,195.337 265.060 C 194.634 266.859,193.769 268.987,193.415 269.790 C 193.061 270.592,192.773 271.367,192.774 271.511 C 192.776 271.655,191.779 274.251,190.559 277.281 C 189.338 280.310,187.459 285.034,186.382 287.780 C 185.306 290.525,184.134 293.428,183.779 294.230 C 183.423 295.033,183.133 295.796,183.133 295.926 C 183.133 296.173,180.218 303.580,179.612 304.873 C 179.296 305.548,180.469 310.811,182.153 316.268 C 182.609 317.746,182.326 318.031,188.286 310.123 C 193.456 303.264,204.460 288.693,212.699 277.797 C 215.061 274.673,221.146 266.602,226.220 259.861 L 235.446 247.606 233.436 243.682 C 232.331 241.525,229.408 235.809,226.941 230.981 C 218.447 214.359,215.404 208.420,212.743 203.270 C 211.275 200.430,207.942 193.924,205.334 188.812 C 202.727 183.701,199.475 177.349,198.108 174.699 C 196.740 172.048,193.720 166.162,191.395 161.618 C 189.071 157.074,186.415 151.920,185.495 150.165 C 183.628 146.607,183.546 146.074,184.462 143.472 C 184.814 142.471,185.763 139.561,186.570 137.005 C 187.378 134.449,188.696 130.344,189.500 127.883 C 190.305 125.422,192.008 120.155,193.285 116.179 C 194.562 112.203,196.585 105.929,197.782 102.238 C 198.978 98.546,201.304 91.343,202.950 86.231 C 204.597 81.119,206.753 74.458,207.742 71.429 C 208.732 68.399,209.881 64.836,210.296 63.511 C 211.515 59.622,215.460 47.359,217.052 42.513 C 217.860 40.052,219.321 35.482,220.299 32.358 C 221.276 29.234,222.221 26.322,222.398 25.887 C 222.575 25.453,222.719 24.949,222.719 24.769 C 222.719 24.571,219.853 24.441,215.519 24.441 C 211.559 24.441,208.267 24.306,208.204 24.142 C 208.141 23.977,199.144 23.767,188.210 23.676 L 168.330 23.509 168.326 24.405 " stroke="none" fill="#a39c35" fill-rule="evenodd"></path><path id="path1" d="M37.615 25.411 C 37.004 25.729,36.501 26.183,36.497 26.420 C 36.492 26.657,36.367 26.850,36.219 26.850 C 34.685 26.850,34.768 18.643,34.768 170.828 C 34.768 311.788,34.791 314.974,35.834 314.974 C 36.005 314.974,36.145 315.207,36.145 315.491 C 36.145 315.775,36.276 316.007,36.436 316.007 C 36.597 316.007,37.081 316.313,37.513 316.688 C 37.945 317.063,38.441 317.282,38.614 317.175 C 38.787 317.068,39.134 317.151,39.384 317.359 C 40.177 318.016,91.910 317.629,91.910 316.966 C 91.910 316.817,92.027 316.730,92.169 316.772 C 92.436 316.851,94.798 314.590,94.765 314.286 C 94.755 314.191,94.884 313.752,95.053 313.310 C 95.226 312.852,95.320 294.184,95.269 270.022 C 95.221 246.656,95.297 227.539,95.439 227.539 C 95.581 227.539,95.697 227.319,95.697 227.051 C 95.697 226.306,97.408 223.064,97.801 223.064 C 97.991 223.064,98.052 222.909,97.935 222.719 C 97.818 222.530,97.895 222.375,98.107 222.375 C 98.318 222.375,98.406 222.237,98.301 222.067 C 98.196 221.898,98.340 221.671,98.619 221.564 C 98.899 221.456,99.044 221.150,98.942 220.884 C 98.839 220.617,98.989 220.165,99.275 219.879 C 99.561 219.593,99.699 219.263,99.582 219.146 C 99.465 219.029,99.539 218.933,99.747 218.933 C 99.955 218.933,100.228 218.609,100.354 218.214 C 100.651 217.277,103.009 213.287,103.353 213.138 C 103.499 213.074,103.531 212.880,103.424 212.707 C 103.317 212.534,103.403 212.392,103.614 212.392 C 103.826 212.392,103.915 212.256,103.812 212.089 C 103.708 211.922,103.943 211.379,104.333 210.884 C 104.722 210.388,104.929 209.983,104.792 209.983 C 104.654 209.983,104.900 209.672,105.338 209.292 C 105.776 208.912,106.037 208.504,105.917 208.384 C 105.798 208.265,105.980 207.762,106.322 207.268 C 106.665 206.773,107.046 206.087,107.170 205.744 C 107.295 205.401,107.535 205.205,107.704 205.310 C 107.873 205.415,107.991 205.237,107.965 204.915 C 107.939 204.593,108.150 204.283,108.434 204.225 C 109.007 204.110,110.155 205.889,110.155 206.892 C 110.155 207.244,110.312 207.630,110.505 207.749 C 110.697 207.868,110.765 208.109,110.657 208.285 C 110.548 208.462,110.589 208.606,110.748 208.606 C 111.126 208.606,111.908 210.685,111.673 211.066 C 111.573 211.228,111.655 211.360,111.856 211.360 C 112.056 211.360,112.220 211.559,112.220 211.803 C 112.220 212.047,112.530 212.855,112.909 213.597 C 113.287 214.340,113.597 215.190,113.597 215.487 C 113.597 215.783,113.838 216.370,114.133 216.791 C 114.428 217.212,114.564 217.556,114.435 217.556 C 114.307 217.556,114.374 217.764,114.585 218.018 C 114.796 218.272,114.866 218.582,114.742 218.706 C 114.617 218.831,114.722 218.933,114.974 218.933 C 115.227 218.933,115.345 219.021,115.237 219.129 C 115.129 219.237,115.250 219.730,115.506 220.223 C 115.762 220.717,115.893 221.248,115.797 221.404 C 115.701 221.559,115.803 221.687,116.023 221.687 C 116.244 221.687,116.336 221.919,116.227 222.203 C 116.118 222.487,116.195 222.719,116.399 222.719 C 116.602 222.719,116.677 222.960,116.564 223.254 C 116.451 223.548,116.494 223.704,116.660 223.602 C 116.826 223.500,117.250 224.342,117.603 225.474 C 117.956 226.607,118.370 227.534,118.523 227.536 C 118.676 227.537,118.706 227.694,118.589 227.883 C 118.472 228.072,118.535 228.227,118.730 228.227 C 118.924 228.227,118.994 228.460,118.885 228.744 C 118.776 229.028,118.875 229.260,119.105 229.260 C 119.335 229.260,119.435 229.488,119.329 229.766 C 119.222 230.045,119.370 230.508,119.658 230.796 C 119.946 231.084,120.085 231.476,119.967 231.667 C 119.849 231.858,119.917 232.014,120.117 232.014 C 120.318 232.014,120.449 232.130,120.409 232.272 C 120.369 232.414,120.531 232.882,120.769 233.312 C 121.007 233.742,121.108 234.245,120.994 234.431 C 120.879 234.616,120.960 234.768,121.173 234.768 C 121.399 234.768,121.473 235.044,121.351 235.431 C 121.225 235.828,121.335 236.207,121.627 236.377 C 121.894 236.533,122.538 237.900,123.057 239.415 C 123.575 240.929,124.177 242.282,124.392 242.422 C 124.608 242.561,124.665 242.677,124.519 242.680 C 124.372 242.683,124.502 243.065,124.807 243.530 C 125.111 243.995,125.261 244.538,125.138 244.735 C 125.016 244.933,125.090 245.095,125.301 245.095 C 125.513 245.095,125.590 245.250,125.473 245.439 C 125.356 245.628,125.435 245.783,125.648 245.783 C 125.879 245.783,125.948 246.061,125.818 246.472 C 125.697 246.850,125.746 247.160,125.925 247.160 C 126.104 247.160,126.439 247.664,126.669 248.279 C 126.899 248.894,127.318 250.017,127.599 250.775 C 127.880 251.532,128.419 252.789,128.795 253.569 C 129.172 254.349,129.535 255.278,129.602 255.635 C 129.669 255.991,129.754 256.360,129.791 256.454 C 129.828 256.549,129.839 256.743,129.817 256.885 C 129.795 257.027,129.892 257.143,130.034 257.143 C 130.176 257.143,130.293 258.111,130.293 259.294 C 130.293 261.514,130.770 262.527,131.657 262.187 C 131.998 262.056,132.311 262.507,132.707 263.698 C 133.017 264.632,133.417 265.486,133.595 265.596 C 133.773 265.706,133.836 265.930,133.735 266.093 C 133.634 266.256,133.712 266.488,133.907 266.609 C 134.103 266.730,134.173 266.973,134.064 267.149 C 133.956 267.326,134.040 267.470,134.251 267.470 C 134.463 267.470,134.549 267.612,134.442 267.785 C 134.335 267.958,134.405 268.152,134.599 268.217 C 134.793 268.281,135.016 268.848,135.096 269.475 C 135.175 270.103,135.424 270.838,135.648 271.109 C 135.873 271.379,135.922 271.603,135.756 271.606 C 135.591 271.609,135.646 271.732,135.878 271.879 C 136.110 272.027,136.342 272.528,136.394 272.993 C 136.446 273.458,136.682 274.043,136.919 274.293 C 137.156 274.543,137.349 275.047,137.349 275.412 C 137.349 275.777,137.513 276.076,137.714 276.076 C 137.914 276.076,137.983 276.231,137.866 276.420 C 137.749 276.609,137.826 276.764,138.038 276.764 C 138.250 276.764,138.334 276.908,138.225 277.085 C 138.116 277.261,138.195 277.509,138.400 277.636 C 138.605 277.763,138.692 278.079,138.592 278.338 C 138.493 278.597,138.647 279.045,138.934 279.333 C 139.222 279.620,139.481 280.205,139.510 280.633 C 139.538 281.061,139.770 281.625,140.025 281.886 C 140.279 282.147,140.406 282.573,140.306 282.833 C 140.206 283.092,140.285 283.305,140.482 283.305 C 140.682 283.305,140.742 283.607,140.619 283.995 C 140.471 284.460,140.583 284.755,140.960 284.900 C 141.268 285.018,141.438 285.327,141.339 285.587 C 141.239 285.846,141.296 286.059,141.464 286.059 C 141.633 286.059,141.958 286.639,142.187 287.349 C 142.416 288.059,142.736 288.809,142.899 289.016 C 143.062 289.223,143.094 289.493,142.971 289.616 C 142.848 289.740,143.004 290.125,143.319 290.473 C 143.634 290.821,143.788 291.209,143.661 291.336 C 143.534 291.463,143.607 291.566,143.822 291.566 C 144.037 291.566,144.123 291.799,144.014 292.083 C 143.905 292.367,144.004 292.599,144.234 292.599 C 144.464 292.599,144.563 292.831,144.454 293.115 C 144.345 293.399,144.415 293.632,144.609 293.632 C 144.804 293.632,144.867 293.787,144.750 293.976 C 144.633 294.165,144.712 294.320,144.925 294.320 C 145.157 294.320,145.225 294.598,145.095 295.009 C 144.974 295.387,145.028 295.697,145.213 295.697 C 145.399 295.697,145.958 296.820,146.456 298.193 C 146.954 299.565,147.675 301.326,148.059 302.106 C 148.443 302.886,148.812 303.815,148.879 304.172 C 148.946 304.528,149.031 304.897,149.068 304.991 C 149.105 305.086,149.117 305.280,149.094 305.422 C 149.072 305.564,149.217 305.680,149.418 305.680 C 149.618 305.680,149.686 305.836,149.568 306.027 C 149.450 306.218,149.605 306.625,149.912 306.932 C 150.219 307.239,150.388 307.702,150.289 307.962 C 150.189 308.221,150.274 308.434,150.478 308.434 C 150.682 308.434,150.759 308.666,150.650 308.950 C 150.541 309.234,150.597 309.466,150.775 309.466 C 150.952 309.466,151.008 309.699,150.899 309.983 C 150.790 310.267,150.860 310.499,151.055 310.499 C 151.250 310.499,151.594 311.080,151.819 311.790 C 152.044 312.500,152.456 313.443,152.734 313.885 C 153.012 314.328,153.148 314.781,153.036 314.892 C 152.692 315.237,154.261 316.657,154.770 316.462 C 155.034 316.360,155.250 316.458,155.250 316.679 C 155.250 316.900,155.404 316.984,155.594 316.867 C 155.783 316.750,155.938 316.804,155.938 316.987 C 155.938 317.170,156.230 317.243,156.588 317.149 C 156.945 317.056,157.341 317.148,157.469 317.354 C 157.745 317.801,181.756 317.892,181.756 317.446 C 181.756 317.291,181.533 316.401,181.261 315.467 C 179.760 310.315,178.681 305.661,178.860 305.107 C 178.972 304.759,179.195 304.165,179.355 303.787 C 179.515 303.408,180.834 300.077,182.287 296.386 C 183.740 292.694,185.124 289.208,185.364 288.640 C 185.603 288.072,187.460 283.348,189.490 278.141 C 191.520 272.935,193.476 268.018,193.837 267.215 C 194.197 266.413,194.494 265.638,194.497 265.494 C 194.499 265.350,195.351 263.159,196.390 260.625 C 197.429 258.091,198.279 255.876,198.279 255.703 C 198.279 255.530,198.589 254.747,198.967 253.963 C 199.346 253.180,199.656 252.309,199.656 252.028 C 199.656 251.431,199.705 251.528,151.855 156.595 L 140.301 133.671 140.711 132.326 C 140.937 131.586,141.525 129.277,142.018 127.194 C 142.511 125.112,143.046 122.943,143.207 122.375 C 143.561 121.122,144.053 119.171,144.596 116.867 C 144.819 115.921,145.138 114.682,145.305 114.114 C 145.471 113.546,146.088 111.145,146.676 108.778 C 147.263 106.411,147.886 103.933,148.059 103.270 C 148.233 102.608,148.518 101.446,148.692 100.688 C 148.866 99.931,149.176 98.692,149.380 97.935 C 149.585 97.177,149.888 95.938,150.054 95.181 C 150.220 94.423,151.783 88.227,153.526 81.411 C 155.269 74.596,156.833 68.399,157.000 67.642 C 157.168 66.885,157.472 65.645,157.677 64.888 C 158.231 62.837,158.618 61.280,159.004 59.552 C 159.193 58.701,159.748 56.532,160.236 54.733 C 160.724 52.935,161.428 50.146,161.801 48.537 C 162.596 45.106,162.845 44.136,163.872 40.448 C 164.294 38.933,164.755 37.074,164.897 36.317 C 165.224 34.565,166.540 29.357,166.940 28.227 C 167.108 27.754,167.342 26.786,167.459 26.076 L 167.673 24.785 160.938 24.785 C 153.754 24.785,152.798 24.999,151.158 26.976 C 150.901 27.285,150.460 27.539,150.179 27.539 C 149.866 27.539,149.745 27.739,149.866 28.055 C 149.975 28.339,149.905 28.571,149.711 28.571 C 149.516 28.571,149.453 28.726,149.570 28.916 C 149.687 29.105,149.647 29.260,149.482 29.260 C 149.123 29.260,148.021 31.477,148.021 32.198 C 148.021 32.475,147.904 32.703,147.762 32.704 C 147.620 32.704,147.218 33.401,146.868 34.253 C 146.518 35.104,146.092 35.800,145.921 35.800 C 145.751 35.800,145.636 35.917,145.667 36.059 C 145.806 36.693,145.148 38.210,144.735 38.210 C 144.483 38.210,144.298 38.491,144.324 38.834 C 144.386 39.660,143.549 41.652,143.139 41.652 C 142.962 41.652,142.905 41.795,143.012 41.969 C 143.120 42.143,143.003 42.491,142.753 42.743 C 142.503 42.995,141.781 44.324,141.150 45.697 C 140.518 47.070,139.844 48.193,139.651 48.193 C 139.458 48.193,139.399 48.292,139.520 48.412 C 139.754 48.647,137.076 53.799,136.625 53.981 C 136.477 54.040,136.450 54.337,136.567 54.640 C 136.718 55.035,136.649 55.111,136.322 54.909 C 136.030 54.728,135.949 54.760,136.096 54.998 C 136.366 55.435,135.659 57.143,135.208 57.143 C 135.038 57.143,134.995 57.298,135.112 57.487 C 135.229 57.676,135.151 57.831,134.940 57.831 C 134.728 57.831,134.651 57.986,134.768 58.176 C 134.885 58.365,134.807 58.520,134.596 58.520 C 134.384 58.520,134.306 58.675,134.423 58.864 C 134.540 59.053,134.472 59.208,134.272 59.208 C 134.071 59.208,133.938 59.324,133.975 59.466 C 134.070 59.823,131.822 64.174,131.474 64.308 C 131.319 64.368,131.270 64.619,131.364 64.866 C 131.459 65.113,131.303 65.550,131.017 65.835 C 130.731 66.121,130.593 66.451,130.711 66.568 C 130.828 66.686,130.734 66.781,130.502 66.781 C 130.270 66.781,130.176 66.936,130.293 67.126 C 130.410 67.315,130.332 67.470,130.120 67.470 C 129.909 67.470,129.831 67.625,129.948 67.814 C 130.065 68.003,130.017 68.158,129.841 68.158 C 129.665 68.158,128.934 69.475,128.217 71.084 C 127.500 72.694,126.774 74.010,126.603 74.010 C 126.433 74.010,126.379 74.149,126.484 74.318 C 126.588 74.488,126.455 74.711,126.187 74.814 C 125.889 74.928,125.771 75.277,125.884 75.710 C 126.017 76.219,125.906 76.420,125.493 76.420 C 125.176 76.420,125.012 76.575,125.129 76.764 C 125.246 76.954,125.167 77.108,124.954 77.108 C 124.725 77.108,124.654 77.386,124.781 77.784 C 124.921 78.227,124.762 78.659,124.318 79.039 C 123.945 79.358,123.721 79.829,123.819 80.085 C 123.918 80.341,123.822 80.551,123.606 80.551 C 123.391 80.551,123.123 80.822,123.011 81.153 C 122.508 82.642,120.701 86.403,120.488 86.403 C 120.359 86.403,120.246 86.596,120.237 86.833 C 120.223 87.256,119.455 88.929,117.941 91.834 C 117.519 92.644,117.041 93.186,116.879 93.039 C 116.717 92.892,116.690 92.954,116.818 93.178 C 117.081 93.637,116.041 96.041,115.579 96.041 C 115.413 96.041,115.374 96.196,115.491 96.386 C 115.608 96.575,115.530 96.730,115.318 96.730 C 115.107 96.730,115.029 96.885,115.146 97.074 C 115.263 97.263,115.195 97.418,114.994 97.418 C 114.794 97.418,114.667 97.534,114.711 97.676 C 114.839 98.083,112.482 102.582,112.141 102.582 C 111.973 102.582,111.925 102.726,112.034 102.902 C 112.275 103.293,111.180 105.680,110.759 105.680 C 110.594 105.680,110.554 105.835,110.671 106.024 C 110.788 106.213,110.604 106.371,110.261 106.374 C 109.733 106.378,109.717 106.430,110.155 106.713 C 110.580 106.987,110.585 107.047,110.184 107.052 C 109.915 107.054,109.795 107.155,109.915 107.276 C 110.036 107.397,109.860 107.900,109.524 108.395 C 109.188 108.890,108.627 109.953,108.277 110.757 C 107.927 111.562,107.500 112.220,107.328 112.220 C 107.157 112.220,107.112 112.375,107.229 112.565 C 107.346 112.754,107.268 112.909,107.057 112.909 C 106.845 112.909,106.768 113.064,106.885 113.253 C 107.002 113.442,106.924 113.597,106.713 113.597 C 106.501 113.597,106.415 113.738,106.521 113.910 C 106.818 114.391,106.353 115.318,105.815 115.318 C 105.551 115.318,105.336 115.599,105.336 115.941 C 105.336 116.284,105.121 116.858,104.858 117.218 C 104.595 117.577,104.441 118.033,104.515 118.230 C 104.590 118.427,104.263 119.039,103.788 119.589 C 103.314 120.139,102.926 120.884,102.926 121.244 C 102.926 121.605,102.771 121.804,102.582 121.687 C 102.388 121.567,102.238 121.847,102.238 122.330 C 102.238 122.801,101.978 123.446,101.660 123.764 C 101.343 124.081,101.040 124.748,100.987 125.245 C 100.934 125.742,100.613 126.352,100.273 126.601 C 99.934 126.849,99.694 127.123,99.742 127.209 C 99.963 127.614,99.785 128.393,99.377 128.805 C 99.129 129.055,98.207 130.770,97.328 132.616 C 96.450 134.462,95.607 135.972,95.456 135.972 C 95.304 135.972,95.180 112.001,95.180 82.702 C 95.178 29.319,95.160 28.330,94.163 27.333 C 93.868 27.037,93.709 26.659,93.812 26.492 C 94.905 24.724,40.930 23.686,37.615 25.411 M222.551 27.797 C 222.035 29.454,221.485 31.119,221.329 31.497 C 221.172 31.876,220.857 32.806,220.629 33.563 C 220.401 34.320,220.090 35.250,219.939 35.628 C 219.787 36.007,219.246 37.711,218.736 39.415 C 218.226 41.119,217.519 43.269,217.166 44.194 C 216.812 45.118,216.523 46.089,216.523 46.350 C 216.523 46.611,216.383 47.094,216.212 47.423 C 216.040 47.752,215.164 50.344,214.265 53.184 C 213.366 56.024,211.827 60.826,210.844 63.855 C 209.861 66.885,208.396 71.454,207.588 74.010 C 206.780 76.566,205.992 78.967,205.837 79.346 C 205.682 79.725,204.977 81.893,204.271 84.165 C 203.565 86.437,201.871 91.704,200.506 95.869 C 199.141 100.034,197.144 106.231,196.067 109.639 C 193.225 118.636,192.712 120.231,192.417 120.998 C 192.271 121.377,191.268 124.475,190.187 127.883 C 189.106 131.291,188.093 134.389,187.936 134.768 C 187.304 136.292,184.509 145.479,184.509 146.029 C 184.509 146.643,185.631 148.973,190.271 158.003 C 191.778 160.938,194.789 166.824,196.960 171.084 C 199.132 175.344,202.585 182.083,204.634 186.059 C 210.368 197.188,213.822 203.916,218.329 212.737 C 220.602 217.186,224.093 224.002,226.086 227.883 C 237.524 250.149,236.617 247.175,233.305 251.563 C 231.932 253.382,230.577 255.207,230.293 255.620 C 230.009 256.033,228.602 257.900,227.167 259.769 C 221.946 266.569,212.268 279.384,211.225 280.879 C 210.636 281.723,209.574 283.057,208.864 283.844 C 208.154 284.631,207.573 285.356,207.573 285.454 C 207.573 285.644,205.264 288.744,196.583 300.213 C 188.743 310.571,185.882 314.319,184.795 315.655 C 184.259 316.313,183.821 317.049,183.821 317.290 C 183.821 317.872,241.824 317.942,242.183 317.360 C 242.308 317.158,242.614 317.071,242.863 317.167 C 243.113 317.262,243.406 317.108,243.515 316.824 C 243.624 316.540,243.869 316.404,244.060 316.522 C 244.250 316.640,244.406 316.577,244.406 316.382 C 244.406 316.188,244.832 315.798,245.353 315.515 C 245.873 315.233,246.095 314.996,245.845 314.988 C 245.503 314.978,245.525 314.839,245.934 314.430 C 246.233 314.131,246.397 313.754,246.297 313.593 C 246.198 313.432,246.275 313.202,246.470 313.082 C 246.709 312.934,246.820 298.954,246.812 269.914 L 246.800 226.965 247.734 225.273 C 248.248 224.342,248.807 223.485,248.976 223.369 C 249.146 223.254,249.249 223.048,249.207 222.912 C 249.076 222.498,250.622 219.966,251.005 219.966 C 251.203 219.966,251.277 219.738,251.170 219.459 C 251.063 219.181,251.172 218.755,251.411 218.513 C 251.650 218.270,252.296 217.182,252.845 216.093 C 253.395 215.004,254.083 214.101,254.375 214.086 C 254.674 214.071,254.733 213.989,254.510 213.897 C 254.050 213.709,254.761 212.051,255.601 211.354 C 255.881 211.121,256.110 210.640,256.110 210.285 C 256.110 209.929,256.274 209.639,256.475 209.639 C 256.675 209.639,256.744 209.484,256.627 209.294 C 256.509 209.105,256.553 208.950,256.722 208.950 C 256.892 208.950,257.455 208.084,257.974 207.025 C 258.492 205.967,259.001 205.186,259.105 205.290 C 259.209 205.393,259.579 205.137,259.928 204.719 C 260.475 204.064,260.564 204.042,260.574 204.561 C 260.580 204.892,260.728 205.164,260.902 205.164 C 261.193 205.164,261.743 206.921,261.615 207.443 C 261.584 207.567,261.692 207.763,261.854 207.879 C 262.332 208.221,263.020 210.007,262.807 210.353 C 262.699 210.528,262.791 210.671,263.011 210.671 C 263.232 210.671,263.324 210.904,263.215 211.188 C 263.106 211.472,263.133 211.704,263.274 211.704 C 263.542 211.704,264.360 213.482,264.586 214.555 C 264.657 214.893,264.966 215.551,265.272 216.018 C 265.578 216.485,265.714 216.867,265.574 216.867 C 265.434 216.867,265.493 217.075,265.704 217.329 C 265.914 217.584,265.985 217.893,265.860 218.018 C 265.736 218.142,265.815 218.244,266.036 218.244 C 266.256 218.244,266.404 218.361,266.364 218.503 C 266.324 218.645,266.486 219.112,266.724 219.542 C 266.963 219.972,267.064 220.476,266.949 220.661 C 266.835 220.847,266.921 220.998,267.142 220.998 C 267.363 220.998,267.454 221.231,267.345 221.515 C 267.236 221.799,267.306 222.031,267.501 222.031 C 267.696 222.031,267.759 222.186,267.642 222.375 C 267.525 222.565,267.566 222.719,267.734 222.719 C 267.902 222.719,268.471 223.961,268.999 225.478 C 269.527 226.995,270.090 228.316,270.249 228.415 C 270.408 228.513,270.458 228.801,270.361 229.054 C 270.264 229.308,270.442 229.773,270.758 230.089 C 271.073 230.404,271.353 231.044,271.380 231.510 C 271.407 231.976,271.583 232.360,271.773 232.363 C 271.962 232.366,271.885 232.519,271.601 232.702 C 271.157 232.989,271.168 233.037,271.676 233.041 C 272.059 233.045,272.198 233.228,272.069 233.563 C 271.960 233.847,272.053 234.079,272.276 234.079 C 272.515 234.079,272.596 234.344,272.474 234.727 C 272.342 235.143,272.465 235.450,272.819 235.586 C 273.201 235.732,273.298 236.022,273.137 236.530 C 273.003 236.952,273.040 237.180,273.223 237.066 C 273.399 236.957,273.826 237.674,274.172 238.658 C 274.518 239.642,274.931 240.617,275.091 240.823 C 275.251 241.030,275.279 241.301,275.155 241.426 C 275.030 241.550,275.118 241.652,275.350 241.652 C 275.582 241.652,275.676 241.807,275.559 241.997 C 275.442 242.186,275.491 242.341,275.668 242.341 C 275.845 242.341,275.990 242.720,275.990 243.183 C 275.990 243.646,276.250 244.286,276.569 244.604 C 276.887 244.923,277.068 245.391,276.971 245.644 C 276.874 245.898,276.945 246.198,277.129 246.312 C 277.313 246.426,277.375 246.663,277.266 246.840 C 277.157 247.016,277.220 247.160,277.406 247.160 C 277.591 247.160,277.929 247.741,278.156 248.451 C 278.383 249.161,278.705 249.889,278.871 250.069 C 279.038 250.249,279.174 250.752,279.174 251.188 C 279.174 251.623,279.355 251.979,279.575 251.979 C 279.796 251.979,279.873 252.083,279.746 252.210 C 279.619 252.337,279.747 252.794,280.029 253.225 C 280.312 253.656,280.451 254.248,280.339 254.540 C 280.217 254.857,280.366 255.160,280.707 255.291 C 281.021 255.412,281.197 255.723,281.098 255.982 C 280.998 256.242,281.067 256.454,281.250 256.454 C 281.433 256.454,281.551 256.571,281.510 256.713 C 281.470 256.855,281.632 257.322,281.870 257.752 C 282.109 258.182,282.210 258.686,282.095 258.871 C 281.981 259.057,282.068 259.208,282.288 259.208 C 282.509 259.208,282.601 259.441,282.492 259.725 C 282.383 260.009,282.460 260.241,282.664 260.241 C 282.867 260.241,282.945 260.473,282.836 260.757 C 282.727 261.041,282.775 261.274,282.944 261.274 C 283.112 261.274,283.506 262.046,283.820 262.991 C 284.133 263.935,284.536 264.798,284.714 264.908 C 284.891 265.018,284.955 265.241,284.854 265.404 C 284.753 265.568,284.830 265.800,285.026 265.921 C 285.221 266.042,285.292 266.285,285.183 266.461 C 285.074 266.637,285.158 266.781,285.370 266.781 C 285.582 266.781,285.667 266.923,285.560 267.096 C 285.453 267.269,285.517 267.463,285.702 267.527 C 285.887 267.590,286.082 268.029,286.134 268.503 C 286.187 268.976,286.433 269.577,286.681 269.838 C 286.928 270.099,287.053 270.515,286.958 270.762 C 286.863 271.010,286.911 271.261,287.065 271.320 C 287.219 271.380,287.459 271.797,287.599 272.246 C 287.790 272.859,287.745 272.997,287.419 272.795 C 287.135 272.620,287.071 272.666,287.234 272.930 C 287.371 273.152,287.599 273.261,287.741 273.174 C 287.883 273.086,288.206 273.587,288.459 274.287 C 288.712 274.987,288.869 275.559,288.808 275.559 C 288.746 275.559,288.908 275.947,289.168 276.420 C 289.427 276.893,289.690 277.584,289.751 277.954 C 289.812 278.325,290.010 278.719,290.189 278.830 C 290.369 278.941,290.563 279.335,290.621 279.705 C 290.678 280.076,290.846 280.572,290.994 280.809 C 291.142 281.046,291.137 281.242,290.984 281.245 C 290.831 281.247,290.916 281.383,291.174 281.547 C 291.432 281.710,291.667 282.335,291.697 282.935 C 291.728 283.536,291.963 284.157,292.220 284.316 C 292.477 284.475,292.581 284.777,292.451 284.987 C 292.321 285.198,292.370 285.370,292.561 285.370 C 292.752 285.370,293.178 286.261,293.507 287.349 C 293.837 288.438,294.334 289.600,294.611 289.931 C 294.888 290.262,294.975 290.536,294.804 290.539 C 294.632 290.542,294.678 290.662,294.904 290.806 C 295.131 290.950,295.410 291.602,295.525 292.255 C 295.640 292.908,295.901 293.545,296.104 293.670 C 296.307 293.796,296.367 294.071,296.237 294.282 C 296.107 294.492,296.181 294.664,296.402 294.664 C 296.623 294.664,296.714 294.897,296.605 295.181 C 296.496 295.465,296.545 295.697,296.714 295.697 C 296.883 295.697,297.212 296.278,297.446 296.988 C 297.680 297.698,298.106 298.821,298.394 299.484 C 298.682 300.146,298.956 300.902,299.004 301.164 C 299.052 301.425,299.257 301.805,299.460 302.007 C 299.662 302.210,299.828 302.731,299.828 303.167 C 299.828 303.602,299.999 303.959,300.209 303.959 C 300.419 303.959,300.501 304.191,300.392 304.475 C 300.283 304.759,300.344 304.991,300.527 304.991 C 300.711 304.991,300.828 305.108,300.787 305.250 C 300.747 305.392,300.909 305.859,301.148 306.289 C 301.386 306.719,301.487 307.223,301.373 307.408 C 301.258 307.594,301.345 307.745,301.566 307.745 C 301.787 307.745,301.875 307.985,301.762 308.279 C 301.633 308.614,301.698 308.727,301.934 308.581 C 302.189 308.423,302.232 308.599,302.065 309.122 C 301.917 309.588,301.951 309.816,302.149 309.693 C 302.331 309.581,302.683 310.142,302.932 310.941 C 303.181 311.739,303.667 312.872,304.012 313.458 C 304.356 314.045,304.577 314.587,304.502 314.663 C 304.427 314.740,304.890 315.189,305.530 315.663 C 306.170 316.136,306.698 316.685,306.703 316.882 C 306.718 317.455,307.241 317.466,336.317 317.499 C 366.855 317.534,364.951 317.617,366.417 316.179 C 367.450 315.166,368.087 310.499,367.191 310.499 C 367.038 310.499,367.009 310.344,367.126 310.155 C 367.243 309.966,367.165 309.811,366.954 309.811 C 366.742 309.811,366.656 309.669,366.763 309.496 C 366.870 309.323,366.788 309.124,366.580 309.055 C 366.372 308.986,366.177 308.508,366.147 307.993 C 366.117 307.478,365.994 307.057,365.873 307.057 C 365.751 307.057,365.297 306.050,364.862 304.819 C 364.428 303.589,363.930 302.582,363.755 302.582 C 363.580 302.582,363.527 302.349,363.636 302.065 C 363.745 301.781,363.675 301.549,363.480 301.549 C 363.286 301.549,363.222 301.394,363.339 301.205 C 363.456 301.015,363.379 300.861,363.167 300.861 C 362.955 300.861,362.871 300.716,362.980 300.540 C 363.089 300.364,363.010 300.116,362.805 299.989 C 362.600 299.862,362.513 299.546,362.613 299.287 C 362.712 299.027,362.575 298.597,362.308 298.330 C 362.041 298.063,361.919 297.749,362.036 297.631 C 362.153 297.514,362.052 297.418,361.811 297.418 C 361.562 297.418,361.458 297.194,361.570 296.902 C 361.679 296.618,361.609 296.386,361.415 296.386 C 361.220 296.386,361.157 296.231,361.274 296.041 C 361.391 295.852,361.354 295.697,361.193 295.697 C 361.032 295.697,360.610 294.845,360.256 293.804 C 359.902 292.762,359.466 291.910,359.288 291.910 C 359.109 291.910,359.052 291.678,359.161 291.394 C 359.270 291.110,359.200 290.878,359.005 290.878 C 358.810 290.878,358.747 290.723,358.864 290.534 C 358.981 290.344,358.887 290.189,358.655 290.189 C 358.423 290.189,358.321 290.101,358.429 289.993 C 358.537 289.885,358.416 289.392,358.160 288.899 C 357.904 288.405,357.773 287.874,357.869 287.718 C 357.965 287.563,357.871 287.435,357.659 287.435 C 357.448 287.435,357.370 287.281,357.487 287.091 C 357.604 286.902,357.519 286.747,357.298 286.747 C 357.078 286.747,356.986 286.515,357.095 286.231 C 357.204 285.947,357.134 285.714,356.940 285.714 C 356.745 285.714,356.682 285.558,356.800 285.367 C 356.918 285.177,356.763 284.769,356.457 284.462 C 356.150 284.155,355.980 283.692,356.080 283.432 C 356.179 283.173,356.117 282.960,355.941 282.960 C 355.765 282.960,355.436 282.341,355.209 281.583 C 354.982 280.826,354.640 280.207,354.449 280.207 C 354.258 280.207,354.206 280.103,354.333 279.976 C 354.460 279.849,354.324 279.380,354.032 278.933 C 353.739 278.487,353.593 277.971,353.707 277.787 C 353.820 277.603,353.740 277.453,353.528 277.453 C 353.317 277.453,353.239 277.298,353.356 277.108 C 353.473 276.919,353.396 276.764,353.184 276.764 C 352.972 276.764,352.887 276.623,352.994 276.449 C 353.101 276.276,353.030 276.082,352.836 276.017 C 352.643 275.953,352.418 275.373,352.336 274.728 C 352.255 274.084,352.005 273.444,351.781 273.306 C 351.558 273.168,351.481 272.882,351.611 272.672 C 351.741 272.461,351.689 272.289,351.494 272.289 C 351.300 272.289,351.230 272.057,351.339 271.773 C 351.447 271.489,351.376 271.256,351.179 271.256 C 350.982 271.256,350.718 270.933,350.593 270.537 C 350.467 270.142,350.063 269.137,349.695 268.306 C 349.327 267.474,349.021 266.674,349.015 266.529 C 349.008 266.384,348.694 265.764,348.316 265.153 C 347.937 264.541,347.726 263.882,347.845 263.690 C 347.964 263.497,347.888 263.339,347.676 263.339 C 347.465 263.339,347.387 263.184,347.504 262.995 C 347.621 262.806,347.536 262.651,347.316 262.651 C 347.095 262.651,347.003 262.418,347.112 262.134 C 347.221 261.850,347.144 261.618,346.940 261.618 C 346.737 261.618,346.659 261.386,346.768 261.102 C 346.877 260.818,346.827 260.585,346.656 260.585 C 346.485 260.585,346.236 260.237,346.101 259.811 C 345.966 259.385,345.542 258.339,345.159 257.487 C 344.376 255.746,344.443 255.922,344.083 254.647 C 343.936 254.127,343.677 253.701,343.508 253.701 C 343.339 253.701,343.196 253.352,343.190 252.926 C 343.184 252.500,342.951 251.850,342.672 251.481 C 342.394 251.112,342.254 250.531,342.363 250.188 C 342.487 249.797,342.353 249.487,342.001 249.351 C 341.693 249.233,341.525 248.916,341.629 248.647 C 341.732 248.377,341.693 248.233,341.543 248.326 C 341.392 248.419,340.896 247.421,340.440 246.107 C 339.985 244.793,339.481 243.718,339.321 243.718 C 339.161 243.718,339.126 243.563,339.243 243.373 C 339.360 243.184,339.275 243.029,339.054 243.029 C 338.833 243.029,338.742 242.797,338.851 242.513 C 338.960 242.229,338.932 241.997,338.789 241.997 C 338.646 241.997,338.503 241.662,338.473 241.253 C 338.442 240.844,338.234 240.397,338.011 240.259 C 337.788 240.121,337.704 239.848,337.825 239.653 C 337.945 239.458,337.801 239.055,337.503 238.757 C 337.205 238.459,337.058 238.059,337.176 237.868 C 337.294 237.678,337.226 237.522,337.025 237.522 C 336.825 237.522,336.661 237.357,336.661 237.157 C 336.661 236.956,336.855 236.902,337.091 237.035 C 337.328 237.169,337.188 236.954,336.781 236.557 C 336.373 236.161,335.780 235.055,335.463 234.101 C 335.146 233.147,334.762 232.289,334.608 232.194 C 334.455 232.099,334.227 231.477,334.103 230.813 C 333.978 230.148,333.711 229.604,333.510 229.604 C 333.309 229.604,333.234 229.372,333.343 229.088 C 333.452 228.804,333.382 228.571,333.187 228.571 C 332.993 228.571,332.930 228.415,333.048 228.225 C 333.166 228.034,333.041 227.656,332.770 227.385 C 332.498 227.114,331.613 225.101,330.802 222.912 C 329.991 220.724,329.179 218.933,328.999 218.933 C 328.818 218.933,328.759 218.701,328.868 218.417 C 328.977 218.133,328.949 217.900,328.806 217.900 C 328.663 217.900,328.522 217.589,328.494 217.208 C 328.465 216.828,328.191 216.266,327.884 215.959 C 327.578 215.653,327.409 215.189,327.508 214.930 C 327.608 214.670,327.523 214.458,327.319 214.458 C 327.115 214.458,327.038 214.225,327.147 213.941 C 327.256 213.657,327.214 213.425,327.054 213.425 C 326.740 213.425,325.186 209.524,325.186 208.737 C 325.186 208.475,325.057 208.262,324.900 208.262 C 324.742 208.262,324.613 208.029,324.613 207.745 C 324.613 207.461,324.463 207.229,324.279 207.229 C 324.096 207.229,324.027 207.017,324.127 206.757 C 324.227 206.497,324.068 206.045,323.774 205.751 C 323.480 205.457,323.191 204.933,323.133 204.588 C 323.074 204.242,322.757 203.451,322.428 202.830 C 322.100 202.209,321.924 201.551,322.037 201.367 C 322.151 201.183,322.095 201.033,321.913 201.033 C 321.640 201.033,321.308 200.393,320.661 198.623 C 320.626 198.528,320.478 198.025,320.330 197.504 C 320.183 196.984,319.925 196.558,319.756 196.558 C 319.587 196.558,319.444 196.209,319.438 195.783 C 319.432 195.357,319.200 194.708,318.922 194.340 C 318.644 193.973,318.417 193.381,318.417 193.025 C 318.417 192.669,318.175 192.136,317.880 191.842 C 317.585 191.547,317.426 191.093,317.525 190.833 C 317.625 190.574,317.540 190.361,317.336 190.361 C 317.133 190.361,317.055 190.129,317.164 189.845 C 317.273 189.561,317.228 189.329,317.063 189.329 C 316.899 189.329,316.486 188.554,316.146 187.608 C 315.805 186.661,315.402 185.886,315.250 185.886 C 315.098 185.886,314.974 185.562,314.974 185.165 C 314.974 184.768,314.742 183.994,314.458 183.444 C 314.174 182.894,313.700 181.979,313.405 181.411 C 313.110 180.842,312.965 180.223,313.081 180.034 C 313.198 179.845,313.160 179.690,312.997 179.690 C 312.834 179.690,312.414 178.877,312.065 177.883 C 311.715 176.889,311.188 175.611,310.894 175.043 C 310.600 174.475,310.405 173.786,310.460 173.512 C 310.515 173.238,310.317 172.835,310.019 172.618 C 309.722 172.400,309.432 171.927,309.376 171.567 C 309.320 171.207,309.154 170.719,309.006 170.482 C 308.858 170.245,308.863 170.049,309.016 170.046 C 309.169 170.043,309.118 169.927,308.903 169.788 C 308.371 169.445,307.359 166.956,307.596 166.573 C 307.700 166.404,307.658 166.265,307.501 166.265 C 307.345 166.265,306.838 165.297,306.375 164.114 C 305.912 162.930,305.412 161.876,305.264 161.770 C 305.115 161.665,304.937 161.094,304.868 160.503 C 304.799 159.911,304.482 159.166,304.163 158.847 C 303.845 158.529,303.642 158.093,303.713 157.881 C 303.784 157.668,303.627 157.278,303.364 157.015 C 303.101 156.753,302.968 156.325,303.068 156.066 C 303.167 155.806,303.089 155.594,302.895 155.594 C 302.700 155.594,302.638 155.438,302.756 155.247 C 302.873 155.056,302.720 154.650,302.414 154.344 C 301.729 153.659,302.187 150.430,302.970 150.430 C 303.157 150.430,303.215 150.275,303.098 150.086 C 302.981 149.897,303.049 149.742,303.250 149.742 C 303.450 149.742,303.614 149.538,303.614 149.290 C 303.614 148.795,305.280 145.200,305.637 144.923 C 305.759 144.828,306.233 143.937,306.689 142.943 C 307.145 141.949,307.656 141.136,307.824 141.136 C 307.993 141.136,308.034 140.981,307.917 140.792 C 307.800 140.602,307.878 140.448,308.090 140.448 C 308.301 140.448,308.379 140.293,308.262 140.103 C 308.145 139.914,308.222 139.759,308.434 139.759 C 308.645 139.759,308.734 139.622,308.630 139.454 C 308.526 139.286,308.657 138.970,308.920 138.751 C 309.183 138.533,309.494 137.973,309.611 137.507 C 309.728 137.042,309.976 136.661,310.161 136.661 C 310.347 136.661,310.499 136.446,310.499 136.182 C 310.499 135.570,312.888 130.705,313.326 130.426 C 313.508 130.310,313.630 130.155,313.598 130.082 C 313.466 129.774,314.037 128.055,314.272 128.055 C 314.413 128.055,315.028 126.969,315.640 125.643 C 316.252 124.316,316.878 123.308,317.032 123.403 C 317.186 123.498,317.404 123.337,317.516 123.044 C 317.633 122.739,317.575 122.601,317.380 122.722 C 317.193 122.838,317.040 122.768,317.040 122.568 C 317.040 122.367,317.204 122.203,317.404 122.203 C 317.605 122.203,317.673 122.048,317.556 121.859 C 317.439 121.670,317.601 121.515,317.917 121.515 C 318.294 121.515,318.420 121.332,318.285 120.980 C 318.091 120.475,319.576 117.067,320.152 116.694 C 320.299 116.599,320.688 115.851,321.016 115.031 C 321.454 113.935,321.696 113.663,321.930 114.000 C 322.150 114.317,322.185 114.231,322.042 113.720 C 321.919 113.280,322.043 112.774,322.347 112.470 C 322.629 112.188,322.763 111.862,322.646 111.745 C 322.528 111.628,322.622 111.532,322.855 111.532 C 323.087 111.532,323.181 111.377,323.064 111.188 C 322.947 110.998,323.024 110.843,323.236 110.843 C 323.447 110.843,323.535 110.705,323.430 110.535 C 323.325 110.366,323.452 110.146,323.711 110.046 C 323.970 109.947,324.286 109.311,324.413 108.633 C 324.540 107.956,324.818 107.401,325.030 107.401 C 325.242 107.401,325.324 107.309,325.211 107.196 C 324.985 106.970,327.341 102.479,327.783 102.294 C 327.935 102.231,327.972 102.037,327.865 101.864 C 327.758 101.691,327.843 101.549,328.055 101.549 C 328.267 101.549,328.344 101.394,328.227 101.205 C 328.110 101.015,328.188 100.861,328.399 100.861 C 328.611 100.861,328.688 100.706,328.571 100.516 C 328.454 100.327,328.549 100.172,328.781 100.172 C 329.013 100.172,329.101 100.070,328.976 99.946 C 328.851 99.821,328.883 99.550,329.046 99.343 C 329.210 99.136,330.924 95.869,332.856 92.083 C 334.788 88.296,336.513 85.146,336.689 85.082 C 336.865 85.019,336.922 84.826,336.815 84.653 C 336.609 84.319,337.631 82.267,338.210 81.854 C 338.542 81.617,338.590 81.471,338.683 80.403 C 338.707 80.133,338.962 79.675,339.251 79.387 C 339.540 79.098,340.136 78.083,340.577 77.132 C 341.018 76.180,341.504 75.514,341.657 75.652 C 341.810 75.791,341.837 75.732,341.717 75.522 C 341.470 75.089,342.193 73.329,342.619 73.325 C 342.772 73.323,342.802 73.167,342.685 72.978 C 342.568 72.788,342.608 72.633,342.773 72.633 C 342.939 72.633,343.362 72.052,343.714 71.343 C 344.327 70.105,344.408 69.866,344.526 68.957 C 344.555 68.734,344.772 68.347,345.009 68.097 C 345.245 67.847,345.893 66.674,346.449 65.491 C 347.004 64.307,347.594 63.339,347.760 63.339 C 347.926 63.339,347.966 63.184,347.849 62.995 C 347.732 62.806,347.826 62.651,348.058 62.651 C 348.290 62.651,348.381 62.552,348.261 62.432 C 348.141 62.312,348.348 61.827,348.720 61.353 C 349.093 60.880,349.398 60.281,349.398 60.022 C 349.398 59.764,349.552 59.552,349.742 59.552 C 349.931 59.552,350.086 59.243,350.086 58.864 C 350.086 58.485,350.383 57.879,350.746 57.516 C 351.109 57.153,351.327 56.777,351.230 56.681 C 351.134 56.584,351.782 55.138,352.671 53.468 C 353.559 51.797,354.601 49.811,354.984 49.053 C 355.368 48.296,355.818 47.624,355.984 47.561 C 356.151 47.497,356.199 47.304,356.092 47.131 C 355.985 46.958,356.071 46.816,356.282 46.816 C 356.494 46.816,356.581 46.677,356.477 46.508 C 356.372 46.338,356.506 46.115,356.774 46.012 C 357.072 45.898,357.189 45.549,357.076 45.116 C 356.943 44.608,357.054 44.406,357.467 44.406 C 357.785 44.406,357.956 44.264,357.849 44.090 C 357.608 43.701,361.024 36.833,361.457 36.833 C 361.628 36.833,361.691 36.630,361.596 36.383 C 361.501 36.135,361.735 35.573,362.116 35.133 C 362.497 34.694,362.725 34.200,362.623 34.035 C 362.521 33.870,362.611 33.735,362.823 33.735 C 363.034 33.735,363.112 33.580,362.995 33.391 C 362.878 33.201,362.908 33.046,363.063 33.046 C 364.067 33.046,364.834 27.899,364.005 26.715 C 362.583 24.683,364.253 24.790,333.810 24.787 C 304.598 24.785,304.553 24.787,303.314 26.281 C 302.781 26.923,302.064 27.065,302.443 26.453 C 302.591 26.212,302.537 26.149,302.306 26.292 C 302.095 26.422,302.006 26.744,302.107 27.007 C 302.210 27.276,301.973 27.656,301.566 27.874 C 301.167 28.087,300.932 28.409,301.043 28.589 C 301.155 28.769,301.072 28.916,300.861 28.916 C 300.649 28.916,300.563 29.057,300.670 29.229 C 300.878 29.567,299.878 31.678,299.312 32.094 C 299.082 32.263,299.082 32.351,299.312 32.358 C 299.501 32.364,299.452 32.498,299.203 32.656 C 298.953 32.814,298.708 33.160,298.657 33.425 C 298.458 34.470,297.643 35.767,297.315 35.564 C 297.124 35.446,297.071 35.517,297.197 35.721 C 297.467 36.158,296.760 37.866,296.310 37.866 C 296.140 37.866,296.096 38.021,296.213 38.210 C 296.330 38.399,296.253 38.554,296.041 38.554 C 295.830 38.554,295.752 38.709,295.869 38.898 C 295.986 39.088,295.909 39.243,295.697 39.243 C 295.485 39.243,295.408 39.398,295.525 39.587 C 295.642 39.776,295.548 39.931,295.316 39.931 C 295.084 39.931,294.995 40.032,295.119 40.156 C 295.242 40.280,295.023 40.899,294.632 41.533 C 294.240 42.167,294.049 42.687,294.206 42.690 C 294.363 42.693,294.308 42.812,294.084 42.955 C 293.859 43.098,293.361 43.948,292.977 44.843 C 292.593 45.739,292.124 46.472,291.934 46.472 C 291.743 46.472,291.677 46.704,291.786 46.988 C 291.898 47.280,291.794 47.504,291.546 47.504 C 291.305 47.504,291.203 47.600,291.320 47.717 C 291.438 47.835,291.307 48.157,291.030 48.434 C 290.754 48.710,290.615 49.079,290.723 49.253 C 290.830 49.427,290.754 49.570,290.554 49.570 C 290.353 49.570,290.189 49.802,290.189 50.086 C 290.189 50.370,290.034 50.602,289.845 50.602 C 289.656 50.602,289.501 50.901,289.501 51.266 C 289.501 51.631,289.259 52.172,288.963 52.468 C 288.666 52.765,288.509 53.144,288.613 53.312 C 288.717 53.480,288.403 54.016,287.916 54.503 C 287.396 55.023,287.136 55.560,287.286 55.803 C 287.460 56.084,287.396 56.126,287.086 55.935 C 286.753 55.729,286.691 55.811,286.855 56.239 C 287.088 56.846,286.655 57.829,285.654 58.970 C 285.336 59.332,285.159 59.843,285.260 60.107 C 285.361 60.370,285.272 60.585,285.063 60.585 C 284.853 60.585,284.682 60.818,284.682 61.102 C 284.682 61.386,284.520 61.618,284.322 61.618 C 284.125 61.618,283.997 61.812,284.038 62.048 C 284.109 62.454,280.651 69.743,279.809 70.962 C 279.594 71.274,279.479 71.584,279.553 71.651 C 279.627 71.718,279.372 72.238,278.986 72.806 C 278.600 73.373,277.916 74.651,277.466 75.645 C 277.015 76.639,276.509 77.453,276.341 77.453 C 276.173 77.453,276.131 77.608,276.248 77.797 C 276.365 77.986,276.287 78.141,276.076 78.141 C 275.864 78.141,275.775 78.278,275.879 78.445 C 275.982 78.612,275.785 79.115,275.441 79.564 C 275.097 80.012,274.522 81.102,274.162 81.986 C 273.803 82.869,273.391 83.520,273.247 83.431 C 273.103 83.342,273.077 83.508,273.189 83.800 C 273.308 84.108,273.171 84.417,272.863 84.535 C 272.571 84.647,272.409 84.938,272.503 85.182 C 272.596 85.426,272.439 85.859,272.153 86.145 C 271.867 86.431,271.729 86.761,271.847 86.878 C 271.964 86.995,271.870 87.091,271.638 87.091 C 271.406 87.091,271.312 87.246,271.429 87.435 C 271.546 87.625,271.468 87.780,271.256 87.780 C 271.045 87.780,270.961 87.924,271.070 88.100 C 271.179 88.276,271.121 88.511,270.943 88.622 C 270.764 88.732,270.120 89.901,269.513 91.218 C 268.882 92.588,268.256 93.520,268.053 93.394 C 267.835 93.260,267.783 93.398,267.918 93.751 C 268.204 94.496,267.502 96.041,266.878 96.041 C 266.613 96.041,266.492 96.196,266.609 96.386 C 266.726 96.575,266.619 96.732,266.371 96.735 C 266.007 96.739,266.008 96.796,266.380 97.031 C 266.747 97.264,266.725 97.366,266.272 97.540 C 265.960 97.660,265.802 97.915,265.921 98.107 C 266.040 98.299,265.895 98.698,265.599 98.995 C 265.302 99.291,265.060 99.832,265.060 100.197 C 265.060 100.562,264.944 100.861,264.802 100.862 C 264.660 100.863,264.257 101.560,263.907 102.411 C 263.557 103.262,263.122 103.959,262.940 103.959 C 262.759 103.959,262.694 104.095,262.797 104.262 C 262.901 104.429,262.613 105.113,262.159 105.783 C 261.704 106.453,261.422 107.091,261.533 107.201 C 261.643 107.311,261.543 107.401,261.311 107.401 C 261.079 107.401,260.977 107.544,261.086 107.719 C 261.331 108.117,260.586 109.811,260.165 109.811 C 259.995 109.811,259.952 109.966,260.069 110.155 C 260.186 110.344,260.108 110.499,259.897 110.499 C 259.685 110.499,259.608 110.654,259.725 110.843 C 259.842 111.033,259.808 111.188,259.649 111.188 C 259.491 111.188,258.923 112.194,258.387 113.425 C 257.851 114.656,257.265 115.663,257.085 115.663 C 256.905 115.663,256.854 115.818,256.971 116.007 C 257.088 116.196,257.052 116.351,256.892 116.351 C 256.732 116.351,256.577 116.663,256.549 117.045 C 256.520 117.426,256.179 118.141,255.792 118.634 C 255.404 119.127,255.171 119.667,255.275 119.834 C 255.378 120.001,255.326 120.138,255.160 120.138 C 254.994 120.138,254.347 121.299,253.723 122.719 C 252.981 124.407,252.394 125.303,252.026 125.306 C 251.537 125.311,251.531 125.355,251.979 125.645 C 252.355 125.888,252.373 125.981,252.045 125.984 C 251.797 125.987,251.690 126.145,251.807 126.334 C 251.924 126.523,251.847 126.678,251.635 126.678 C 251.423 126.678,251.338 126.820,251.445 126.993 C 251.552 127.166,251.522 127.360,251.379 127.423 C 251.236 127.487,250.585 128.662,249.933 130.034 C 249.282 131.407,248.628 132.530,248.481 132.530 C 248.334 132.530,248.296 132.743,248.395 133.002 C 248.495 133.262,248.297 133.755,247.954 134.098 C 247.612 134.441,247.332 134.951,247.331 135.233 C 247.330 135.514,247.175 135.795,246.986 135.858 C 246.760 135.934,246.674 117.922,246.732 82.616 C 246.794 45.040,246.712 29.260,246.453 29.260 C 246.252 29.260,246.181 29.107,246.297 28.920 C 246.514 28.568,246.421 28.423,244.838 26.649 C 243.186 24.800,243.091 24.785,232.938 24.785 L 223.489 24.785 222.551 27.797 " stroke="none" fill="#0c7ba4" fill-rule="evenodd"></path><path id="path2" d="M167.871 24.693 C 167.738 24.907,167.488 25.752,167.314 26.569 C 167.140 27.386,166.583 29.604,166.076 31.497 C 165.569 33.391,165.039 35.559,164.897 36.317 C 164.756 37.074,164.294 38.933,163.872 40.448 C 162.845 44.136,162.596 45.106,161.801 48.537 C 161.428 50.146,160.724 52.935,160.236 54.733 C 159.748 56.532,159.193 58.701,159.004 59.552 C 158.618 61.280,158.231 62.837,157.677 64.888 C 157.472 65.645,157.168 66.885,157.000 67.642 C 156.833 68.399,155.269 74.596,153.526 81.411 C 151.783 88.227,150.220 94.423,150.054 95.181 C 149.888 95.938,149.585 97.177,149.380 97.935 C 149.176 98.692,148.866 99.931,148.692 100.688 C 148.518 101.446,148.233 102.608,148.059 103.270 C 147.886 103.933,147.263 106.411,146.676 108.778 C 146.088 111.145,145.471 113.546,145.305 114.114 C 145.138 114.682,144.819 115.921,144.596 116.867 C 144.053 119.171,143.561 121.122,143.207 122.375 C 143.046 122.943,142.511 125.112,142.018 127.194 C 141.525 129.277,140.937 131.586,140.711 132.326 L 140.301 133.671 151.855 156.595 C 199.705 251.528,199.656 251.431,199.656 252.028 C 199.656 252.309,199.346 253.180,198.967 253.963 C 198.589 254.747,198.279 255.530,198.279 255.703 C 198.279 255.876,197.429 258.091,196.390 260.625 C 195.351 263.159,194.499 265.350,194.497 265.494 C 194.494 265.638,194.197 266.413,193.837 267.215 C 193.476 268.018,191.520 272.935,189.490 278.141 C 187.460 283.348,185.603 288.072,185.364 288.640 C 185.124 289.208,183.740 292.694,182.287 296.386 C 180.834 300.077,179.515 303.408,179.355 303.787 C 179.195 304.165,178.973 304.758,178.862 305.103 C 178.751 305.448,179.222 307.849,179.910 310.439 C 180.598 313.028,181.313 315.727,181.500 316.437 C 181.843 317.740,183.821 318.467,183.821 317.290 C 183.821 317.049,184.259 316.313,184.795 315.655 C 185.882 314.319,188.743 310.571,196.583 300.213 C 205.264 288.744,207.573 285.644,207.573 285.454 C 207.573 285.356,208.154 284.631,208.864 283.844 C 209.574 283.057,210.636 281.723,211.225 280.879 C 212.268 279.384,221.946 266.569,227.167 259.769 C 228.602 257.900,230.009 256.033,230.293 255.620 C 230.577 255.207,231.932 253.382,233.305 251.563 C 236.617 247.175,237.524 250.149,226.086 227.883 C 224.093 224.002,220.602 217.186,218.329 212.737 C 213.822 203.916,210.368 197.188,204.634 186.059 C 202.585 182.083,199.132 175.344,196.960 171.084 C 194.789 166.824,191.778 160.938,190.271 158.003 C 185.631 148.973,184.509 146.643,184.509 146.029 C 184.509 145.479,187.304 136.292,187.936 134.768 C 188.093 134.389,189.106 131.291,190.187 127.883 C 191.268 124.475,192.271 121.377,192.417 120.998 C 192.712 120.231,193.225 118.636,196.067 109.639 C 197.144 106.231,199.141 100.034,200.506 95.869 C 201.871 91.704,203.565 86.437,204.271 84.165 C 204.977 81.893,205.682 79.725,205.837 79.346 C 205.992 78.967,206.780 76.566,207.588 74.010 C 208.396 71.454,209.861 66.885,210.844 63.855 C 211.827 60.826,213.366 56.024,214.265 53.184 C 215.164 50.344,216.040 47.752,216.212 47.423 C 216.383 47.094,216.523 46.611,216.523 46.350 C 216.523 46.089,216.812 45.118,217.166 44.194 C 217.519 43.269,218.226 41.119,218.736 39.415 C 219.246 37.711,219.787 36.007,219.939 35.628 C 220.090 35.250,220.401 34.320,220.629 33.563 C 220.857 32.806,221.171 31.876,221.326 31.497 C 221.771 30.414,223.408 25.117,223.408 24.761 C 223.408 23.677,222.704 24.804,222.049 26.936 C 221.627 28.309,221.001 30.284,220.656 31.325 C 220.312 32.367,218.836 36.936,217.376 41.480 C 215.915 46.024,214.062 51.756,213.257 54.217 C 212.452 56.678,211.288 60.318,210.671 62.306 C 210.054 64.294,208.738 68.399,207.747 71.429 C 206.755 74.458,204.597 81.119,202.950 86.231 C 201.304 91.343,198.978 98.546,197.782 102.238 C 196.585 105.929,194.562 112.203,193.285 116.179 C 192.008 120.155,190.305 125.422,189.500 127.883 C 188.696 130.344,187.378 134.449,186.570 137.005 C 185.763 139.561,184.814 142.471,184.462 143.472 C 183.546 146.074,183.628 146.607,185.495 150.165 C 186.415 151.920,189.071 157.074,191.395 161.618 C 193.720 166.162,196.740 172.048,198.108 174.699 C 199.475 177.349,202.727 183.701,205.334 188.812 C 207.942 193.924,211.275 200.430,212.743 203.270 C 215.404 208.420,218.447 214.359,226.941 230.981 C 229.408 235.809,232.331 241.525,233.436 243.682 L 235.446 247.606 226.220 259.861 C 221.146 266.602,215.061 274.673,212.699 277.797 C 204.460 288.693,193.456 303.264,188.286 310.123 C 182.326 318.031,182.609 317.746,182.153 316.268 C 180.469 310.811,179.296 305.548,179.612 304.873 C 180.218 303.580,183.133 296.173,183.133 295.926 C 183.133 295.796,183.423 295.033,183.779 294.230 C 184.134 293.428,185.306 290.525,186.382 287.780 C 187.459 285.034,189.338 280.310,190.559 277.281 C 191.779 274.251,192.776 271.655,192.774 271.511 C 192.773 271.367,193.061 270.592,193.415 269.790 C 193.769 268.987,194.634 266.859,195.337 265.060 C 196.040 263.262,196.751 261.480,196.917 261.102 C 197.833 259.013,200.344 252.236,200.344 251.853 C 200.344 251.606,197.191 245.144,193.336 237.492 C 189.482 229.840,180.479 211.962,173.330 197.762 C 166.181 183.563,155.992 163.354,150.687 152.853 L 141.041 133.761 143.877 122.388 C 145.436 116.133,147.094 109.544,147.560 107.745 C 148.874 102.682,149.079 101.872,151.483 92.255 C 152.453 88.373,153.702 83.417,154.259 81.239 C 154.815 79.062,155.407 76.661,155.573 75.904 C 155.739 75.146,156.444 72.358,157.140 69.707 C 157.836 67.057,158.545 64.269,158.716 63.511 C 158.995 62.275,159.291 61.125,159.869 59.036 C 160.217 57.776,162.886 47.009,163.196 45.611 C 163.364 44.854,163.669 43.614,163.873 42.857 C 164.078 42.100,164.374 40.938,164.532 40.275 C 164.689 39.613,165.617 35.920,166.593 32.070 C 168.200 25.732,168.578 23.549,167.871 24.693 " stroke="none" fill="#408072" fill-rule="evenodd"></path><path id="path3" d="M52.040 24.699 C 58.984 24.751,70.447 24.751,77.513 24.699 C 84.580 24.647,78.898 24.604,64.888 24.604 C 50.878 24.604,45.096 24.647,52.040 24.699 M157.936 24.698 C 159.886 24.759,162.984 24.759,164.820 24.697 C 166.656 24.635,165.060 24.585,161.274 24.585 C 157.487 24.586,155.985 24.636,157.936 24.698 M227.990 24.698 C 230.604 24.757,234.787 24.756,237.284 24.698 C 239.781 24.639,237.642 24.591,232.530 24.591 C 227.418 24.591,225.375 24.640,227.990 24.698 M319.880 24.699 C 327.405 24.750,339.720 24.750,347.246 24.699 C 354.772 24.647,348.614 24.605,333.563 24.605 C 318.511 24.605,312.354 24.647,319.880 24.699 M362.327 25.290 C 362.694 25.568,363.150 25.796,363.339 25.796 C 363.528 25.796,363.383 25.568,363.015 25.290 C 362.648 25.012,362.192 24.785,362.003 24.785 C 361.813 24.785,361.959 25.012,362.327 25.290 M152.058 25.818 C 151.576 26.196,151.030 26.506,150.843 26.506 C 150.657 26.506,150.415 26.738,150.306 27.022 C 150.040 27.714,150.574 27.679,151.163 26.967 C 151.423 26.652,152.100 26.110,152.668 25.763 C 153.236 25.416,153.528 25.131,153.317 25.130 C 153.106 25.130,152.539 25.439,152.058 25.818 M244.062 25.632 C 244.062 25.751,244.433 26.220,244.887 26.674 C 245.341 27.128,245.785 27.702,245.873 27.949 C 245.961 28.197,246.133 28.308,246.255 28.196 C 246.535 27.939,245.070 25.747,244.492 25.557 C 244.256 25.480,244.062 25.513,244.062 25.632 M302.714 26.236 C 301.613 27.082,301.168 27.617,301.386 27.835 C 301.466 27.914,302.111 27.415,302.821 26.726 C 304.268 25.321,304.216 25.083,302.714 26.236 M35.456 27.194 C 35.036 27.784,34.787 28.361,34.902 28.477 C 35.018 28.592,35.112 28.535,35.112 28.349 C 35.112 28.164,35.437 27.664,35.835 27.237 C 36.233 26.810,36.482 26.384,36.389 26.291 C 36.296 26.198,35.876 26.605,35.456 27.194 M93.632 26.625 C 93.632 26.691,93.941 27.102,94.320 27.539 C 95.067 28.400,95.220 28.232,94.652 27.172 C 94.354 26.614,93.632 26.227,93.632 26.625 M149.262 28.429 C 148.978 29.167,148.996 29.260,149.418 29.260 C 149.618 29.260,149.695 29.118,149.588 28.945 C 149.481 28.772,149.580 28.568,149.809 28.492 C 150.101 28.394,150.112 28.284,149.847 28.120 C 149.640 27.992,149.376 28.131,149.262 28.429 M364.322 28.774 C 364.295 29.228,364.411 29.514,364.580 29.409 C 364.954 29.178,364.987 28.329,364.630 28.108 C 364.488 28.021,364.349 28.320,364.322 28.774 M299.845 30.603 C 299.449 31.379,299.245 32.009,299.391 32.003 C 299.701 31.989,300.906 29.535,300.702 29.331 C 300.626 29.255,300.241 29.828,299.845 30.603 M34.594 171.256 C 34.594 248.881,34.633 280.585,34.682 241.710 C 34.730 202.835,34.730 139.324,34.682 100.574 C 34.633 61.825,34.594 93.632,34.594 171.256 M298.463 33.024 C 298.008 33.875,298.004 34.527,298.457 34.248 C 298.649 34.129,298.725 33.900,298.626 33.739 C 298.526 33.578,298.689 33.201,298.989 32.902 C 299.288 32.603,299.372 32.358,299.176 32.358 C 298.980 32.358,298.659 32.658,298.463 33.024 M362.623 34.035 C 362.725 34.200,362.502 34.688,362.127 35.120 C 361.412 35.944,361.253 36.489,361.726 36.489 C 361.970 36.489,363.167 34.334,363.167 33.895 C 363.167 33.807,363.003 33.735,362.802 33.735 C 362.602 33.735,362.521 33.870,362.623 34.035 M296.222 37.160 C 295.600 38.364,295.578 38.554,296.062 38.554 C 296.262 38.554,296.330 38.399,296.213 38.210 C 296.096 38.021,296.140 37.866,296.310 37.866 C 296.480 37.866,296.796 37.478,297.011 37.005 C 297.569 35.781,296.864 35.920,296.222 37.160 M360.769 37.499 C 360.277 38.420,360.324 38.664,360.893 38.137 C 361.157 37.893,361.311 37.591,361.235 37.465 C 361.159 37.339,361.292 37.158,361.530 37.062 C 361.853 36.931,361.857 36.881,361.544 36.860 C 361.314 36.845,360.965 37.133,360.769 37.499 M143.546 40.275 C 143.159 41.033,143.001 41.652,143.194 41.652 C 143.388 41.652,143.546 41.594,143.546 41.522 C 143.546 41.451,143.780 40.831,144.067 40.145 C 144.766 38.472,144.422 38.558,143.546 40.275 M359.058 41.055 C 358.433 42.236,358.076 43.046,358.264 42.857 C 358.760 42.359,360.468 39.183,360.320 39.035 C 360.251 38.966,359.683 39.875,359.058 41.055 M294.750 40.706 C 294.336 41.224,293.287 43.258,293.287 43.542 C 293.287 43.654,293.504 43.545,293.769 43.301 C 294.034 43.057,294.191 42.795,294.118 42.718 C 294.045 42.642,294.305 42.061,294.697 41.427 C 295.395 40.298,295.427 39.856,294.750 40.706 M292.255 45.074 C 292.255 45.275,292.268 45.538,292.284 45.659 C 292.300 45.779,292.107 46.009,291.854 46.170 C 291.528 46.376,291.516 46.463,291.812 46.466 C 292.395 46.474,293.046 45.199,292.600 44.923 C 292.410 44.806,292.255 44.874,292.255 45.074 M140.135 46.872 C 139.612 48.372,139.859 48.438,140.552 46.984 C 140.867 46.323,140.988 45.783,140.820 45.783 C 140.652 45.783,140.344 46.273,140.135 46.872 M291.087 47.360 C 290.803 48.100,290.820 48.193,291.242 48.193 C 291.443 48.193,291.511 48.038,291.394 47.849 C 291.277 47.659,291.345 47.504,291.546 47.504 C 291.746 47.504,291.910 47.349,291.910 47.160 C 291.910 46.616,291.317 46.760,291.087 47.360 M139.148 48.359 C 139.286 48.511,138.849 49.635,138.177 50.857 C 137.506 52.079,137.012 53.133,137.079 53.201 C 137.147 53.268,137.777 52.256,138.480 50.950 C 139.423 49.200,139.645 48.512,139.328 48.330 C 139.092 48.194,139.011 48.207,139.148 48.359 M354.133 50.688 C 353.190 52.129,351.794 55.078,352.060 55.067 C 352.301 55.058,354.980 49.914,354.744 49.914 C 354.687 49.914,354.412 50.262,354.133 50.688 M136.126 54.704 C 136.233 54.877,136.204 55.071,136.061 55.134 C 135.334 55.456,134.027 58.520,134.616 58.520 C 134.816 58.520,134.885 58.365,134.768 58.176 C 134.651 57.986,134.728 57.831,134.940 57.831 C 135.151 57.831,135.229 57.676,135.112 57.487 C 134.995 57.298,135.034 57.143,135.200 57.143 C 135.365 57.143,135.762 56.595,136.081 55.926 C 136.762 54.497,136.777 54.389,136.296 54.389 C 136.096 54.389,136.019 54.531,136.126 54.704 M133.095 60.800 C 132.284 62.501,132.538 62.576,133.453 60.906 C 133.861 60.161,134.081 59.552,133.942 59.552 C 133.804 59.552,133.423 60.114,133.095 60.800 M347.849 62.995 C 347.966 63.184,347.928 63.339,347.765 63.339 C 347.603 63.339,347.131 64.036,346.717 64.888 C 345.692 66.997,346.281 66.858,347.437 64.719 C 348.477 62.793,348.516 62.651,348.000 62.651 C 347.800 62.651,347.732 62.806,347.849 62.995 M130.189 66.274 C 129.322 68.060,129.301 68.158,129.797 68.158 C 129.997 68.158,130.065 68.003,129.948 67.814 C 129.831 67.625,129.909 67.470,130.120 67.470 C 130.332 67.470,130.410 67.315,130.293 67.126 C 130.176 66.936,130.270 66.781,130.502 66.781 C 130.734 66.781,130.828 66.686,130.711 66.568 C 130.593 66.451,130.722 66.130,130.997 65.855 C 131.543 65.310,131.660 64.716,131.222 64.716 C 131.070 64.716,130.605 65.417,130.189 66.274 M280.170 69.436 C 279.018 71.774,279.003 71.821,279.609 71.214 C 280.197 70.627,281.334 68.139,281.116 67.920 C 281.043 67.847,280.618 68.529,280.170 69.436 M344.621 68.718 C 344.394 69.216,344.287 69.703,344.384 69.800 C 344.480 69.896,344.723 69.545,344.923 69.019 C 345.395 67.777,345.158 67.540,344.621 68.718 M342.667 72.948 C 342.774 73.121,342.744 73.315,342.601 73.379 C 341.889 73.694,340.917 76.076,341.501 76.076 C 341.701 76.076,341.769 75.921,341.652 75.731 C 341.535 75.542,341.575 75.387,341.740 75.387 C 341.906 75.387,342.302 74.840,342.621 74.171 C 343.303 72.742,343.318 72.633,342.837 72.633 C 342.636 72.633,342.560 72.775,342.667 72.948 M276.744 75.956 C 276.197 77.394,276.547 77.641,277.198 76.275 C 277.521 75.598,277.630 75.043,277.439 75.043 C 277.248 75.043,276.935 75.454,276.744 75.956 M124.284 78.456 C 124.073 78.851,124.044 79.174,124.220 79.174 C 124.573 79.174,125.062 78.131,124.821 77.890 C 124.737 77.806,124.496 78.061,124.284 78.456 M275.161 79.349 C 274.942 79.821,274.903 80.121,275.073 80.016 C 275.527 79.735,276.146 78.485,275.830 78.488 C 275.681 78.490,275.380 78.877,275.161 79.349 M338.778 80.207 C 338.580 80.775,338.483 81.239,338.563 81.239 C 338.643 81.239,338.949 80.775,339.243 80.207 C 339.536 79.639,339.633 79.174,339.457 79.174 C 339.282 79.174,338.976 79.639,338.778 80.207 M337.197 83.381 C 336.591 84.246,336.516 84.682,336.971 84.682 C 337.142 84.682,337.444 84.217,337.642 83.649 C 338.070 82.421,337.929 82.336,337.197 83.381 M273.134 83.425 C 272.469 84.158,272.246 84.682,272.601 84.682 C 272.795 84.682,273.126 84.359,273.338 83.964 C 273.778 83.141,273.665 82.842,273.134 83.425 M120.708 85.441 C 120.428 86.511,120.642 86.565,121.107 85.544 C 121.323 85.070,121.366 84.682,121.203 84.682 C 121.040 84.682,120.817 85.023,120.708 85.441 M271.813 85.628 C 271.696 85.960,271.510 86.424,271.400 86.661 C 271.289 86.898,271.393 87.091,271.629 87.091 C 271.866 87.091,271.964 86.995,271.847 86.878 C 271.729 86.761,271.858 86.440,272.133 86.165 C 272.693 85.606,272.792 85.026,272.329 85.026 C 272.162 85.026,271.930 85.297,271.813 85.628 M119.866 86.564 C 120.001 86.713,119.575 87.846,118.920 89.080 C 117.572 91.620,117.446 92.022,118.367 90.838 C 119.482 89.406,120.491 86.791,120.029 86.526 C 119.805 86.398,119.732 86.415,119.866 86.564 M334.143 89.517 C 333.434 90.834,332.974 91.902,333.122 91.893 C 333.424 91.873,335.746 87.438,335.554 87.247 C 335.487 87.179,334.852 88.201,334.143 89.517 M269.425 90.722 C 268.616 92.417,268.730 92.706,269.575 91.103 C 269.959 90.376,270.213 89.719,270.138 89.645 C 270.064 89.570,269.743 90.055,269.425 90.722 M332.249 93.114 C 332.033 93.588,331.990 93.976,332.153 93.976 C 332.439 93.976,332.954 92.564,332.745 92.354 C 332.688 92.298,332.465 92.640,332.249 93.114 M116.835 92.890 C 116.970 93.109,116.947 93.287,116.784 93.287 C 116.530 93.287,114.974 96.106,114.974 96.567 C 114.974 96.656,115.138 96.730,115.339 96.730 C 115.539 96.730,115.608 96.575,115.491 96.386 C 115.374 96.196,115.411 96.041,115.574 96.041 C 116.110 96.041,117.401 92.994,116.975 92.731 C 116.740 92.586,116.685 92.648,116.835 92.890 M267.181 94.853 C 266.705 95.898,266.691 96.041,267.070 96.041 C 267.321 96.041,268.158 94.571,268.158 94.132 C 268.158 93.636,267.521 94.106,267.181 94.853 M113.954 98.709 C 113.140 100.452,112.490 102.067,112.676 101.889 C 113.126 101.457,114.909 97.762,114.667 97.762 C 114.518 97.762,114.197 98.188,113.954 98.709 M327.850 101.840 C 327.985 102.059,327.957 102.238,327.786 102.238 C 327.616 102.238,327.301 102.625,327.085 103.098 C 326.528 104.321,327.232 104.184,327.873 102.946 C 328.257 102.203,328.291 101.867,328.001 101.688 C 327.756 101.536,327.698 101.594,327.850 101.840 M110.912 104.484 C 110.045 106.270,110.024 106.368,110.519 106.368 C 110.720 106.368,110.788 106.213,110.671 106.024 C 110.554 105.835,110.594 105.680,110.759 105.680 C 111.018 105.680,112.220 103.545,112.220 103.086 C 112.220 102.460,111.545 103.181,110.912 104.484 M109.185 108.262 C 108.969 108.735,108.849 109.122,108.918 109.122 C 108.987 109.122,109.297 108.735,109.607 108.262 C 109.917 107.788,110.037 107.401,109.874 107.401 C 109.711 107.401,109.400 107.788,109.185 108.262 M260.430 108.746 C 260.127 109.332,260.013 109.811,260.177 109.811 C 260.526 109.811,261.374 108.075,261.140 107.841 C 261.052 107.753,260.732 108.160,260.430 108.746 M108.145 110.342 C 107.569 111.608,107.679 111.878,108.302 110.727 C 108.594 110.189,108.767 109.685,108.689 109.607 C 108.610 109.528,108.366 109.859,108.145 110.342 M322.719 111.876 C 322.836 112.065,322.797 112.220,322.631 112.220 C 322.466 112.220,322.056 112.801,321.721 113.511 C 321.116 114.793,321.116 114.797,321.783 114.092 C 322.977 112.828,323.528 111.532,322.871 111.532 C 322.671 111.532,322.602 111.687,322.719 111.876 M257.483 114.297 C 256.872 115.772,257.246 115.901,257.936 114.454 C 258.251 113.793,258.375 113.253,258.212 113.253 C 258.048 113.253,257.720 113.723,257.483 114.297 M105.881 114.507 C 105.593 115.258,105.975 115.607,106.382 114.964 C 106.789 114.321,106.798 113.941,106.405 113.941 C 106.236 113.941,106.000 114.196,105.881 114.507 M255.794 117.855 C 254.909 119.286,254.855 119.833,255.707 118.721 C 256.338 117.899,256.894 116.695,256.644 116.695 C 256.570 116.695,256.188 117.217,255.794 117.855 M319.017 118.571 C 318.501 119.622,318.206 120.482,318.359 120.482 C 318.733 120.482,320.223 117.469,320.073 117.017 C 320.007 116.821,319.532 117.520,319.017 118.571 M103.987 118.709 C 103.424 119.759,103.541 120.052,104.166 119.159 C 104.469 118.726,104.637 118.291,104.538 118.193 C 104.439 118.094,104.191 118.326,103.987 118.709 M254.373 120.511 C 254.162 120.906,254.079 121.319,254.189 121.429 C 254.299 121.539,254.389 121.460,254.389 121.252 C 254.389 121.045,254.632 120.632,254.930 120.334 C 255.227 120.037,255.310 119.793,255.114 119.793 C 254.918 119.793,254.585 120.117,254.373 120.511 M317.556 121.859 C 317.673 122.048,317.605 122.203,317.404 122.203 C 317.204 122.203,317.040 122.377,317.040 122.589 C 317.040 122.856,317.199 122.843,317.556 122.547 C 318.156 122.050,318.234 121.515,317.708 121.515 C 317.507 121.515,317.439 121.670,317.556 121.859 M252.728 123.434 C 251.897 125.145,251.857 125.301,252.255 125.301 C 252.664 125.301,254.068 122.258,253.750 122.061 C 253.600 121.969,253.140 122.586,252.728 123.434 M314.979 127.011 C 314.741 127.585,314.444 128.055,314.319 128.055 C 314.195 128.055,313.917 128.521,313.702 129.090 C 313.487 129.659,313.436 130.048,313.589 129.954 C 313.983 129.710,315.737 126.293,315.559 126.115 C 315.478 126.034,315.217 126.437,314.979 127.011 M99.312 128.055 C 99.018 128.623,98.921 129.088,99.097 129.088 C 99.273 129.088,99.578 128.623,99.776 128.055 C 99.974 127.487,100.071 127.022,99.991 127.022 C 99.911 127.022,99.605 127.487,99.312 128.055 M249.979 129.277 C 248.942 131.411,249.057 131.710,250.126 129.657 C 250.603 128.739,250.935 127.929,250.863 127.857 C 250.791 127.785,250.393 128.424,249.979 129.277 M247.567 133.735 C 247.351 134.208,247.238 134.596,247.315 134.596 C 247.589 134.596,248.537 133.508,248.537 133.194 C 248.537 132.564,247.952 132.890,247.567 133.735 M96.084 134.124 C 95.493 135.419,95.883 135.555,96.541 134.283 C 96.844 133.698,96.958 133.219,96.794 133.219 C 96.630 133.219,96.310 133.626,96.084 134.124 M307.917 140.792 C 308.034 140.981,307.995 141.136,307.829 141.136 C 307.664 141.136,307.254 141.717,306.919 142.427 C 306.314 143.709,306.314 143.713,306.981 143.008 C 308.175 141.744,308.726 140.448,308.069 140.448 C 307.869 140.448,307.800 140.602,307.917 140.792 M304.579 146.815 C 304.095 147.851,303.847 148.606,304.029 148.493 C 304.400 148.264,305.763 145.236,305.579 145.051 C 305.514 144.986,305.064 145.780,304.579 146.815 M302.446 150.975 C 302.123 151.817,302.193 151.928,302.754 151.463 C 303.326 150.988,303.439 150.430,302.963 150.430 C 302.794 150.430,302.561 150.675,302.446 150.975 M301.926 153.184 C 301.895 153.914,302.492 154.765,302.811 154.446 C 302.958 154.300,302.912 154.072,302.709 153.940 C 302.507 153.808,302.252 153.468,302.144 153.184 C 301.969 152.725,301.945 152.725,301.926 153.184 M302.942 156.110 C 302.934 156.622,303.548 157.496,303.764 157.280 C 303.867 157.177,303.726 156.794,303.450 156.429 C 303.174 156.064,302.945 155.921,302.942 156.110 M303.620 157.917 C 303.635 158.672,304.293 159.173,304.298 158.434 C 304.301 158.008,304.148 157.659,303.959 157.659 C 303.769 157.659,303.617 157.775,303.620 157.917 M306.048 163.339 C 306.048 163.528,306.270 164.071,306.540 164.544 C 306.811 165.017,307.032 165.250,307.032 165.060 C 307.032 164.871,306.811 164.329,306.540 163.855 C 306.270 163.382,306.048 163.150,306.048 163.339 M307.401 166.888 C 307.401 167.041,307.646 167.467,307.945 167.834 C 308.444 168.446,308.473 168.449,308.290 167.872 C 308.180 167.525,308.090 167.099,308.090 166.925 C 308.090 166.752,307.935 166.609,307.745 166.609 C 307.556 166.609,307.401 166.735,307.401 166.888 M309.367 171.773 C 309.466 172.151,309.669 172.461,309.819 172.461 C 309.968 172.461,310.009 172.151,309.910 171.773 C 309.811 171.394,309.608 171.084,309.459 171.084 C 309.309 171.084,309.268 171.394,309.367 171.773 M311.876 177.559 C 311.876 177.712,312.104 178.138,312.381 178.506 C 312.897 179.188,313.076 178.806,312.700 177.825 C 312.484 177.263,311.876 177.066,311.876 177.559 M312.925 180.207 C 312.917 180.718,313.531 181.592,313.747 181.376 C 313.850 181.273,313.709 180.890,313.433 180.526 C 313.157 180.161,312.928 180.017,312.925 180.207 M313.966 182.272 C 313.965 182.651,314.191 183.261,314.469 183.629 C 315.109 184.474,315.109 184.211,314.471 182.742 C 314.123 181.940,313.968 181.795,313.966 182.272 M317.519 191.250 C 317.634 191.550,317.728 191.859,317.728 191.939 C 317.728 192.018,317.868 192.083,318.040 192.083 C 318.212 192.083,318.271 191.773,318.172 191.394 C 318.073 191.015,317.839 190.706,317.651 190.706 C 317.464 190.706,317.404 190.951,317.519 191.250 M318.417 192.992 C 318.417 193.366,318.644 193.973,318.922 194.340 C 319.384 194.952,319.400 194.910,319.105 193.843 C 318.715 192.436,318.417 192.066,318.417 192.992 M321.859 201.655 C 321.859 201.809,322.104 202.235,322.403 202.602 C 322.902 203.213,322.931 203.217,322.748 202.640 C 322.637 202.293,322.547 201.867,322.547 201.693 C 322.547 201.519,322.392 201.377,322.203 201.377 C 322.014 201.377,321.859 201.502,321.859 201.655 M107.613 204.979 C 106.979 205.946,106.928 206.196,107.364 206.196 C 107.533 206.196,107.768 205.809,107.887 205.336 C 108.176 204.184,108.644 204.251,109.311 205.540 C 109.614 206.125,109.932 206.534,110.019 206.447 C 110.278 206.188,108.983 204.135,108.559 204.133 C 108.344 204.132,107.919 204.513,107.613 204.979 M323.136 204.819 C 323.235 205.198,323.438 205.508,323.588 205.508 C 323.737 205.508,323.779 205.198,323.680 204.819 C 323.581 204.441,323.377 204.131,323.228 204.131 C 323.078 204.131,323.037 204.441,323.136 204.819 M261.973 208.836 C 261.955 209.490,262.356 210.327,262.687 210.327 C 263.139 210.327,263.063 209.860,262.489 209.102 C 262.211 208.734,261.979 208.615,261.973 208.836 M110.854 209.524 C 110.837 210.178,111.238 211.015,111.569 211.015 C 112.020 211.015,111.944 210.549,111.371 209.790 C 111.093 209.423,110.860 209.303,110.854 209.524 M104.406 210.749 C 103.779 211.558,103.572 212.048,103.856 212.048 C 104.197 212.048,105.099 210.664,104.892 210.457 C 104.811 210.376,104.592 210.508,104.406 210.749 M255.268 211.684 C 254.935 212.052,254.717 212.513,254.784 212.709 C 254.851 212.905,255.169 212.604,255.492 212.040 C 256.174 210.848,256.112 210.751,255.268 211.684 M102.791 213.625 C 102.507 214.365,102.524 214.458,102.946 214.458 C 103.147 214.458,103.215 214.303,103.098 214.114 C 102.981 213.924,103.049 213.769,103.250 213.769 C 103.450 213.769,103.614 213.614,103.614 213.425 C 103.614 212.881,103.021 213.025,102.791 213.625 M253.419 214.974 C 253.203 215.448,253.090 215.835,253.167 215.835 C 253.441 215.835,254.389 214.748,254.389 214.433 C 254.389 213.803,253.804 214.130,253.419 214.974 M327.502 215.347 C 327.617 215.646,327.711 215.956,327.711 216.035 C 327.711 216.114,327.851 216.179,328.023 216.179 C 328.194 216.179,328.254 215.869,328.155 215.491 C 328.056 215.112,327.821 214.802,327.634 214.802 C 327.446 214.802,327.387 215.047,327.502 215.347 M101.225 216.395 C 100.820 217.081,100.545 217.699,100.613 217.768 C 100.682 217.836,101.085 217.275,101.510 216.519 C 102.474 214.804,102.227 214.696,101.225 216.395 M99.900 218.795 C 99.656 219.060,99.551 219.277,99.667 219.277 C 99.782 219.277,99.634 219.521,99.336 219.818 C 98.834 220.320,98.606 220.998,98.939 220.998 C 99.162 220.998,100.611 218.568,100.470 218.433 C 100.401 218.368,100.144 218.531,99.900 218.795 M265.749 218.568 C 265.749 218.746,265.904 218.988,266.093 219.105 C 266.282 219.222,266.437 219.618,266.437 219.986 C 266.437 220.353,266.592 220.654,266.781 220.654 C 267.263 220.654,267.210 220.240,266.621 219.399 C 266.344 219.003,266.215 218.581,266.335 218.462 C 266.454 218.342,266.371 218.244,266.150 218.244 C 265.929 218.244,265.749 218.390,265.749 218.568 M114.630 219.257 C 114.630 219.435,114.785 219.676,114.974 219.793 C 115.164 219.910,115.318 220.307,115.318 220.674 C 115.318 221.042,115.468 221.343,115.652 221.343 C 115.997 221.343,115.773 220.421,115.268 219.762 C 115.110 219.555,115.082 219.284,115.207 219.159 C 115.331 219.035,115.252 218.933,115.032 218.933 C 114.811 218.933,114.630 219.079,114.630 219.257 M249.968 221.156 C 249.572 221.826,249.365 222.375,249.507 222.375 C 249.845 222.375,251.063 220.311,250.851 220.099 C 250.761 220.010,250.364 220.485,249.968 221.156 M116.228 223.144 C 116.373 223.377,116.510 223.826,116.533 224.141 C 116.556 224.456,116.865 225.001,117.218 225.352 C 117.845 225.973,117.855 225.972,117.588 225.301 C 117.437 224.923,117.159 224.187,116.971 223.666 C 116.782 223.145,116.479 222.719,116.297 222.719 C 116.115 222.719,116.084 222.910,116.228 223.144 M267.594 223.152 C 267.629 223.390,267.944 223.971,268.295 224.443 C 268.778 225.094,268.870 225.135,268.678 224.613 C 268.539 224.234,268.347 223.653,268.251 223.322 C 268.054 222.636,267.497 222.493,267.594 223.152 M248.235 224.313 C 247.662 225.571,247.912 225.641,248.614 224.418 C 248.932 223.863,249.071 223.408,248.920 223.408 C 248.770 223.408,248.462 223.815,248.235 224.313 M331.853 225.666 C 331.847 225.866,332.069 226.331,332.347 226.698 C 332.625 227.066,332.857 227.203,332.863 227.002 C 332.869 226.802,332.647 226.337,332.369 225.969 C 332.091 225.602,331.859 225.465,331.853 225.666 M246.828 226.828 C 246.392 227.642,246.372 227.985,246.774 227.737 C 247.078 227.549,247.552 226.162,247.312 226.162 C 247.242 226.162,247.024 226.461,246.828 226.828 M269.559 227.731 C 269.614 228.464,270.119 229.364,270.306 229.061 C 270.416 228.882,270.288 228.437,270.021 228.072 C 269.754 227.706,269.546 227.553,269.559 227.731 M334.140 230.809 C 334.258 231.377,334.563 232.147,334.819 232.521 C 335.343 233.286,335.446 233.006,334.975 232.095 C 334.805 231.766,334.500 231.110,334.296 230.637 C 333.943 229.817,333.935 229.825,334.140 230.809 M270.814 230.986 C 270.914 231.368,271.158 231.781,271.357 231.903 C 271.584 232.044,271.632 231.904,271.487 231.526 C 271.360 231.195,271.256 230.783,271.256 230.609 C 271.256 230.435,271.116 230.293,270.944 230.293 C 270.773 230.293,270.714 230.605,270.814 230.986 M120.382 233.735 C 120.481 234.114,120.699 234.423,120.866 234.423 C 121.226 234.423,121.239 234.314,120.961 233.591 C 120.658 232.801,120.170 232.922,120.382 233.735 M123.924 242.665 C 123.924 242.843,124.079 243.084,124.269 243.201 C 124.458 243.318,124.613 243.715,124.613 244.082 C 124.613 244.450,124.768 244.750,124.957 244.750 C 125.439 244.750,125.386 244.336,124.797 243.495 C 124.520 243.099,124.391 242.678,124.510 242.558 C 124.630 242.439,124.547 242.341,124.326 242.341 C 124.105 242.341,123.924 242.487,123.924 242.665 M277.187 247.569 C 277.262 247.794,277.508 248.039,277.733 248.114 C 277.984 248.198,278.061 248.040,277.932 247.705 C 277.692 247.079,276.981 246.949,277.187 247.569 M126.006 247.849 C 125.998 248.584,126.550 249.367,126.796 248.969 C 126.908 248.787,126.778 248.345,126.506 247.985 C 126.126 247.483,126.010 247.451,126.006 247.849 M342.169 250.537 C 342.169 250.690,342.386 251.113,342.652 251.477 C 343.105 252.096,343.125 252.078,342.957 251.198 C 342.796 250.360,342.169 249.833,342.169 250.537 M279.518 252.880 C 279.518 253.070,279.746 253.525,280.023 253.893 C 280.301 254.260,280.529 254.406,280.529 254.217 C 280.529 254.028,280.301 253.572,280.023 253.204 C 279.746 252.837,279.518 252.691,279.518 252.880 M128.568 253.873 C 128.708 254.251,128.900 254.832,128.995 255.164 C 129.090 255.495,129.300 255.766,129.461 255.766 C 129.821 255.766,129.492 254.801,128.816 253.873 L 128.315 253.184 128.568 253.873 M281.250 257.373 C 281.232 258.027,281.633 258.864,281.965 258.864 C 282.416 258.864,282.340 258.397,281.767 257.639 C 281.489 257.271,281.256 257.152,281.250 257.373 M130.214 259.897 C 130.214 260.749,130.281 261.097,130.363 260.671 C 130.445 260.245,130.445 259.548,130.363 259.122 C 130.281 258.696,130.214 259.045,130.214 259.897 M347.679 263.941 C 347.680 264.083,347.989 264.664,348.365 265.232 C 348.741 265.800,349.050 266.081,349.051 265.855 C 349.052 265.630,348.898 265.349,348.709 265.232 C 348.520 265.115,348.365 264.719,348.365 264.351 C 348.365 263.984,348.210 263.683,348.021 263.683 C 347.831 263.683,347.677 263.799,347.679 263.941 M133.907 267.794 C 133.907 267.972,134.062 268.213,134.251 268.330 C 134.441 268.447,134.596 268.844,134.596 269.211 C 134.596 269.579,134.761 269.880,134.963 269.880 C 135.387 269.880,135.017 268.395,134.548 268.215 C 134.382 268.152,134.335 267.958,134.442 267.785 C 134.549 267.612,134.472 267.470,134.272 267.470 C 134.071 267.470,133.907 267.616,133.907 267.794 M285.630 268.330 C 285.721 268.804,285.948 269.191,286.135 269.191 C 286.323 269.191,286.382 268.946,286.267 268.647 C 286.153 268.347,286.059 267.960,286.059 267.786 C 286.059 267.612,285.925 267.470,285.762 267.470 C 285.599 267.470,285.540 267.857,285.630 268.330 M287.211 272.575 C 287.524 272.922,287.665 273.334,287.522 273.491 C 287.380 273.648,287.457 273.665,287.695 273.528 C 288.203 273.236,287.658 271.945,287.026 271.945 C 286.809 271.945,286.889 272.220,287.211 272.575 M352.346 275.129 C 352.478 275.555,352.722 275.956,352.888 276.019 C 353.053 276.083,353.101 276.276,352.994 276.449 C 352.887 276.623,352.963 276.764,353.164 276.764 C 353.626 276.764,353.639 276.185,353.184 275.904 C 352.995 275.787,352.840 275.390,352.840 275.023 C 352.840 274.655,352.675 274.355,352.472 274.355 C 352.250 274.355,352.200 274.659,352.346 275.129 M137.705 277.022 C 137.723 277.459,138.726 278.642,138.726 278.227 C 138.726 278.013,138.569 277.740,138.376 277.621 C 138.184 277.502,138.116 277.261,138.225 277.085 C 138.334 276.908,138.259 276.764,138.058 276.764 C 137.858 276.764,137.699 276.880,137.705 277.022 M290.090 279.518 C 290.189 279.897,290.392 280.207,290.541 280.207 C 290.691 280.207,290.732 279.897,290.633 279.518 C 290.534 279.139,290.331 278.830,290.181 278.830 C 290.032 278.830,289.991 279.139,290.090 279.518 M138.971 280.207 C 139.070 280.585,139.273 280.895,139.423 280.895 C 139.572 280.895,139.614 280.585,139.515 280.207 C 139.416 279.828,139.212 279.518,139.063 279.518 C 138.913 279.518,138.872 279.828,138.971 280.207 M290.777 281.111 C 290.658 281.229,290.799 281.786,291.089 282.348 C 291.379 282.909,291.677 283.309,291.750 283.236 C 291.993 282.992,291.491 281.583,291.162 281.583 C 290.983 281.583,290.933 281.429,291.050 281.239 C 291.286 280.857,291.112 280.775,290.777 281.111 M139.764 282.186 C 139.761 282.612,139.914 282.960,140.103 282.960 C 140.535 282.960,140.535 282.595,140.103 281.928 C 139.833 281.510,139.769 281.560,139.764 282.186 M356.943 285.590 C 357.126 285.683,357.191 285.981,357.087 286.253 C 356.982 286.525,357.055 286.747,357.248 286.747 C 357.734 286.747,357.522 285.598,357.018 285.501 C 356.793 285.457,356.759 285.498,356.943 285.590 M357.896 288.382 C 358.014 288.713,358.240 289.154,358.398 289.360 C 358.556 289.567,358.584 289.838,358.459 289.963 C 358.335 290.087,358.414 290.189,358.635 290.189 C 359.126 290.189,359.164 289.620,358.692 289.329 C 358.503 289.212,358.348 288.815,358.348 288.448 C 358.348 288.080,358.198 287.780,358.014 287.780 C 357.831 287.780,357.777 288.051,357.896 288.382 M295.022 291.957 C 295.406 293.296,295.767 293.714,295.558 292.578 C 295.473 292.116,295.392 291.545,295.378 291.308 C 295.364 291.071,295.209 290.878,295.033 290.878 C 294.837 290.878,294.833 291.299,295.022 291.957 M362.489 299.377 C 362.483 299.603,362.636 299.885,362.828 300.003 C 363.021 300.122,363.089 300.364,362.980 300.540 C 362.871 300.716,362.946 300.861,363.147 300.861 C 363.652 300.861,363.602 300.424,363.006 299.636 C 362.728 299.268,362.495 299.152,362.489 299.377 M298.795 301.452 C 298.795 301.672,298.950 301.948,299.139 302.065 C 299.329 302.182,299.502 302.618,299.524 303.032 C 299.554 303.605,299.601 303.643,299.720 303.191 C 299.806 302.863,299.633 302.247,299.336 301.823 C 299.038 301.399,298.795 301.232,298.795 301.452 M147.676 302.141 C 147.676 302.361,147.831 302.637,148.021 302.754 C 148.210 302.871,148.365 303.267,148.365 303.635 C 148.365 304.002,148.515 304.303,148.698 304.303 C 149.077 304.303,148.815 303.423,148.136 302.419 C 147.883 302.046,147.676 301.920,147.676 302.141 M300.761 306.461 C 300.860 306.978,301.078 307.401,301.245 307.401 C 301.687 307.401,301.618 306.939,301.065 306.182 C 300.613 305.564,300.593 305.582,300.761 306.461 M149.642 307.401 C 149.741 307.780,149.959 308.090,150.126 308.090 C 150.486 308.090,150.499 307.980,150.221 307.257 C 149.918 306.467,149.429 306.588,149.642 307.401 M366.525 309.007 C 366.763 309.103,366.870 309.323,366.763 309.496 C 366.656 309.669,366.742 309.811,366.954 309.811 C 367.165 309.811,367.243 309.966,367.126 310.155 C 367.009 310.344,367.077 310.499,367.277 310.499 C 367.734 310.499,367.736 310.285,367.286 309.444 C 367.090 309.078,366.741 308.790,366.511 308.805 C 366.198 308.825,366.202 308.876,366.525 309.007 M367.350 312.823 C 367.371 313.817,367.522 314.630,367.687 314.630 C 368.092 314.630,368.058 312.177,367.644 311.532 C 367.411 311.168,367.324 311.548,367.350 312.823 M304.885 315.551 C 305.126 316.194,305.992 317.009,306.454 317.029 C 306.980 317.051,306.646 316.501,305.662 315.723 C 304.805 315.047,304.686 315.020,304.885 315.551 M93.312 315.805 C 93.055 316.115,92.947 316.470,93.072 316.595 C 93.393 316.916,94.081 316.151,93.916 315.655 C 93.821 315.370,93.634 315.417,93.312 315.805 M36.489 316.277 C 36.489 316.661,38.378 317.728,39.058 317.728 C 39.374 317.728,39.526 317.565,39.400 317.360 C 39.275 317.158,38.969 317.071,38.719 317.167 C 38.470 317.262,37.920 317.041,37.497 316.674 C 36.649 315.939,36.489 315.876,36.489 316.277 M154.905 316.867 C 155.403 317.467,155.938 317.546,155.938 317.019 C 155.938 316.819,155.783 316.750,155.594 316.867 C 155.404 316.984,155.250 316.916,155.250 316.716 C 155.250 316.515,155.076 316.351,154.863 316.351 C 154.596 316.351,154.609 316.511,154.905 316.867 M156.454 317.384 C 156.571 317.573,156.899 317.728,157.183 317.728 C 157.467 317.728,157.604 317.573,157.487 317.384 C 157.370 317.194,157.042 317.040,156.758 317.040 C 156.474 317.040,156.337 317.194,156.454 317.384 " stroke="none" fill="#4a8da9" fill-rule="evenodd"></path><path id="path4" d="M144.787 37.033 C 144.464 37.876,144.534 37.959,145.095 37.399 C 145.680 36.813,145.754 36.489,145.304 36.489 C 145.135 36.489,144.902 36.734,144.787 37.033 M142.225 42.528 C 141.648 43.794,141.758 44.064,142.382 42.913 C 142.673 42.375,142.847 41.871,142.768 41.793 C 142.689 41.714,142.445 42.045,142.225 42.528 M285.922 57.345 C 285.639 58.083,285.657 58.176,286.079 58.176 C 286.279 58.176,286.356 58.034,286.249 57.861 C 286.142 57.688,286.241 57.484,286.470 57.407 C 286.762 57.310,286.773 57.200,286.508 57.036 C 286.300 56.908,286.037 57.047,285.922 57.345 M281.636 65.943 C 281.406 66.447,281.382 66.734,281.579 66.612 C 282.084 66.300,282.692 65.060,282.339 65.060 C 282.174 65.060,281.857 65.457,281.636 65.943 M312.085 132.386 C 311.801 133.126,311.818 133.219,312.241 133.219 C 312.441 133.219,312.509 133.064,312.392 132.874 C 312.275 132.685,312.344 132.530,312.544 132.530 C 312.745 132.530,312.909 132.375,312.909 132.186 C 312.909 131.641,312.315 131.786,312.085 132.386 M144.928 295.955 C 144.940 296.567,145.529 297.141,145.760 296.767 C 145.890 296.557,145.823 296.386,145.611 296.386 C 145.399 296.386,145.322 296.231,145.439 296.041 C 145.556 295.852,145.488 295.697,145.287 295.697 C 145.087 295.697,144.925 295.813,144.928 295.955 " stroke="none" fill="#77acc3" fill-rule="evenodd"></path></g></svg>